<svg width="105" height="105" viewBox="0 0 105 105" fill="none" xmlns="http://www.w3.org/2000/svg">
<path d="M61.2625 52.2625C61.2625 63.2511 60.1481 73.1658 58.3634 80.3042C57.4692 83.8812 56.4203 86.7049 55.2941 88.6103C54.1283 90.5826 53.0714 91.2625 52.2625 91.2625C51.4536 91.2625 50.3967 90.5826 49.2309 88.6103C48.1047 86.7049 47.0558 83.8812 46.1616 80.3042C44.377 73.1658 43.2625 63.2511 43.2625 52.2625C43.2625 41.2739 44.377 31.3592 46.1616 24.2208C47.0558 20.6438 48.1047 17.8201 49.2309 15.9147C50.3967 13.9424 51.4536 13.2625 52.2625 13.2625C53.0714 13.2625 54.1283 13.9424 55.2941 15.9147C56.4203 17.8201 57.4692 20.6438 58.3634 24.2208C60.1481 31.3592 61.2625 41.2739 61.2625 52.2625Z" stroke="#9F00CE" stroke-width="2"/>
<path d="M52.2625 43.2625C63.2511 43.2625 73.1658 44.377 80.3042 46.1616C83.8812 47.0558 86.7049 48.1047 88.6103 49.2309C90.5826 50.3967 91.2625 51.4536 91.2625 52.2625C91.2625 53.0714 90.5826 54.1283 88.6103 55.2941C86.7049 56.4203 83.8812 57.4692 80.3042 58.3634C73.1658 60.148 63.2511 61.2625 52.2625 61.2625C41.274 61.2625 31.3593 60.148 24.2208 58.3634C20.6438 57.4692 17.8201 56.4203 15.9147 55.2941C13.9424 54.1283 13.2625 53.0714 13.2625 52.2625C13.2625 51.4536 13.9424 50.3967 15.9147 49.2309C17.8201 48.1047 20.6438 47.0558 24.2208 46.1616C31.3593 44.377 41.274 43.2625 52.2625 43.2625Z" stroke="#9F00CE" stroke-width="2"/>
<path d="M58.6265 45.8985C66.3965 53.6686 72.6193 61.4674 76.405 67.777C78.302 70.9386 79.5569 73.6769 80.1079 75.8206C80.6782 78.0396 80.4116 79.2677 79.8397 79.8397C79.2677 80.4116 78.0396 80.6782 75.8206 80.1079C73.6769 79.5569 70.9386 78.302 67.777 76.405C61.4674 72.6193 53.6686 66.3966 45.8985 58.6265C38.1285 50.8564 31.9057 43.0576 28.12 36.748C26.223 33.5864 24.9681 30.8481 24.4171 28.7044C23.8468 26.4854 24.1134 25.2573 24.6853 24.6853C25.2573 24.1134 26.4854 23.8468 28.7044 24.4171C30.8481 24.9681 33.5864 26.223 36.748 28.12C43.0576 31.9057 50.8564 38.1285 58.6265 45.8985Z" stroke="#9F00CE" stroke-width="2"/>
<path d="M58.6265 58.6264C50.8564 66.3965 43.0576 72.6192 36.748 76.405C33.5864 78.302 30.8481 79.5569 28.7044 80.1079C26.4854 80.6782 25.2573 80.4116 24.6853 79.8397C24.1134 79.2677 23.8468 78.0396 24.4171 75.8206C24.9681 73.6769 26.223 70.9386 28.12 67.777C31.9057 61.4674 38.1285 53.6686 45.8985 45.8985C53.6686 38.1284 61.4674 31.9057 67.777 28.12C70.9386 26.223 73.6769 24.968 75.8206 24.4171C78.0396 23.8468 79.2677 24.1134 79.8397 24.6853C80.4116 25.2573 80.6782 26.4854 80.1079 28.7044C79.557 30.8481 78.302 33.5864 76.405 36.748C72.6193 43.0576 66.3966 50.8564 58.6265 58.6264Z" stroke="#9F00CE" stroke-width="2"/>
<path d="M60.5774 48.8184C64.7826 58.9705 67.5471 68.5569 68.6301 75.835C69.1728 79.4818 69.2843 82.492 68.973 84.6833C68.6508 86.9517 67.9345 87.9843 67.1872 88.2938C66.4399 88.6034 65.2032 88.3797 63.3714 87.0036C61.6017 85.6742 59.5521 83.4669 57.3571 80.5044C52.9766 74.5923 48.1527 65.8588 43.9476 55.7067C39.7425 45.5546 36.9779 35.9681 35.8949 28.6901C35.3522 25.0432 35.2407 22.033 35.552 19.8417C35.8743 17.5734 36.5906 16.5408 37.3379 16.2312C38.0852 15.9217 39.3218 16.1453 41.1536 17.5214C42.9233 18.8508 44.9729 21.0582 47.1679 24.0206C51.5485 29.9328 56.3723 38.6663 60.5774 48.8184Z" stroke="#9F00CE" stroke-width="2"/>
<path d="M48.8184 43.9476C58.9705 39.7425 68.5569 36.9779 75.835 35.8949C79.4818 35.3522 82.492 35.2407 84.6833 35.552C86.9517 35.8743 87.9843 36.5905 88.2938 37.3379C88.6034 38.0852 88.3797 39.3218 87.0036 41.1536C85.6742 42.9233 83.4669 44.9729 80.5044 47.1679C74.5923 51.5485 65.8588 56.3723 55.7067 60.5774C45.5546 64.7826 35.9681 67.5471 28.6901 68.6301C25.0432 69.1728 22.033 69.2843 19.8417 68.973C17.5734 68.6508 16.5408 67.9345 16.2312 67.1872C15.9217 66.4399 16.1453 65.2032 17.5214 63.3714C18.8508 61.6017 21.0582 59.5521 24.0206 57.3571C29.9328 52.9765 38.6663 48.1527 48.8184 43.9476Z" stroke="#9F00CE" stroke-width="2"/>
<path d="M55.7067 43.9476C65.8588 48.1527 74.5923 52.9766 80.5044 57.3571C83.4669 59.5521 85.6742 61.6017 87.0036 63.3714C88.3797 65.2032 88.6034 66.4399 88.2938 67.1872C87.9843 67.9345 86.9517 68.6508 84.6833 68.973C82.492 69.2844 79.4818 69.1728 75.835 68.6302C68.5569 67.5471 58.9705 64.7826 48.8184 60.5774C38.6663 56.3723 29.9328 51.5485 24.0206 47.1679C21.0582 44.9729 18.8508 42.9233 17.5214 41.1537C16.1453 39.3218 15.9217 38.0852 16.2312 37.3379C16.5408 36.5906 17.5734 35.8743 19.8417 35.552C22.033 35.2407 25.0432 35.3522 28.6901 35.8949C35.9681 36.9779 45.5546 39.7425 55.7067 43.9476Z" stroke="#9F00CE" stroke-width="2"/>
<path d="M60.5774 55.7067C56.3723 65.8588 51.5485 74.5923 47.1679 80.5044C44.9729 83.4669 42.9233 85.6742 41.1536 87.0036C39.3218 88.3797 38.0852 88.6034 37.3379 88.2938C36.5906 87.9843 35.8743 86.9517 35.552 84.6833C35.2407 82.492 35.3522 79.4818 35.8949 75.835C36.9779 68.5569 39.7425 58.9705 43.9476 48.8184C48.1527 38.6663 52.9766 29.9328 57.3571 24.0206C59.5521 21.0582 61.6017 18.8508 63.3714 17.5214C65.2032 16.1453 66.4399 15.9217 67.1872 16.2312C67.9345 16.5408 68.6508 17.5734 68.973 19.8417C69.2843 22.033 69.1728 25.0432 68.6301 28.6901C67.5471 35.9681 64.7826 45.5546 60.5774 55.7067Z" stroke="#9F00CE" stroke-width="2"/>
</svg>
