<svg width="396" height="612" viewBox="0 0 396 612" fill="none" xmlns="http://www.w3.org/2000/svg">
<rect x="0.5" y="0.5" width="395" height="611" fill="white" stroke="black"/>
<path d="M109.376 204.984H103.777C103.675 204.26 103.466 203.616 103.151 203.054C102.835 202.483 102.43 201.997 101.936 201.597C101.442 201.196 100.871 200.889 100.223 200.676C99.5838 200.463 98.8892 200.357 98.1392 200.357C96.7841 200.357 95.6037 200.693 94.598 201.366C93.5923 202.031 92.8125 203.003 92.2585 204.281C91.7045 205.551 91.4276 207.094 91.4276 208.909C91.4276 210.776 91.7045 212.344 92.2585 213.614C92.821 214.884 93.6051 215.842 94.6108 216.49C95.6165 217.138 96.7798 217.462 98.1009 217.462C98.8423 217.462 99.5284 217.364 100.159 217.168C100.798 216.972 101.365 216.686 101.859 216.311C102.354 215.928 102.763 215.463 103.087 214.918C103.419 214.372 103.649 213.75 103.777 213.051L109.376 213.077C109.232 214.278 108.869 215.438 108.29 216.554C107.719 217.662 106.947 218.655 105.976 219.533C105.013 220.402 103.862 221.092 102.524 221.604C101.195 222.107 99.6903 222.358 98.0114 222.358C95.6761 222.358 93.5881 221.83 91.7472 220.773C89.9148 219.716 88.4659 218.186 87.4006 216.183C86.3438 214.18 85.8153 211.756 85.8153 208.909C85.8153 206.054 86.3523 203.625 87.4261 201.622C88.5 199.619 89.9574 198.094 91.7983 197.045C93.6392 195.989 95.7102 195.46 98.0114 195.46C99.5284 195.46 100.935 195.673 102.23 196.099C103.534 196.526 104.689 197.148 105.695 197.966C106.7 198.776 107.518 199.768 108.149 200.945C108.788 202.121 109.197 203.467 109.376 204.984ZM118.843 222.371C117.59 222.371 116.474 222.153 115.494 221.719C114.513 221.276 113.738 220.624 113.167 219.763C112.604 218.893 112.323 217.811 112.323 216.516C112.323 215.425 112.523 214.509 112.924 213.767C113.325 213.026 113.87 212.429 114.56 211.977C115.251 211.526 116.035 211.185 116.913 210.955C117.799 210.724 118.728 210.562 119.7 210.469C120.842 210.349 121.762 210.239 122.461 210.136C123.16 210.026 123.667 209.864 123.982 209.651C124.298 209.437 124.455 209.122 124.455 208.705V208.628C124.455 207.818 124.2 207.192 123.688 206.749C123.185 206.305 122.469 206.084 121.54 206.084C120.56 206.084 119.781 206.301 119.201 206.736C118.621 207.162 118.238 207.699 118.05 208.347L113.013 207.938C113.269 206.744 113.772 205.713 114.522 204.844C115.272 203.966 116.239 203.293 117.424 202.824C118.617 202.347 119.998 202.108 121.566 202.108C122.657 202.108 123.701 202.236 124.698 202.491C125.704 202.747 126.594 203.143 127.37 203.68C128.154 204.217 128.772 204.908 129.224 205.751C129.675 206.587 129.901 207.588 129.901 208.756V222H124.737V219.277H124.583C124.268 219.891 123.846 220.432 123.317 220.901C122.789 221.361 122.154 221.723 121.413 221.987C120.671 222.243 119.815 222.371 118.843 222.371ZM120.403 218.612C121.204 218.612 121.911 218.455 122.525 218.139C123.138 217.815 123.62 217.381 123.969 216.835C124.319 216.29 124.494 215.672 124.494 214.982V212.898C124.323 213.009 124.089 213.111 123.79 213.205C123.501 213.29 123.173 213.371 122.806 213.447C122.44 213.516 122.073 213.58 121.707 213.639C121.34 213.69 121.008 213.737 120.71 213.78C120.07 213.874 119.512 214.023 119.035 214.227C118.558 214.432 118.187 214.709 117.923 215.058C117.658 215.399 117.526 215.825 117.526 216.337C117.526 217.078 117.795 217.645 118.332 218.037C118.877 218.42 119.567 218.612 120.403 218.612ZM134.126 222V202.364H139.406V205.79H139.611C139.969 204.571 140.57 203.651 141.413 203.028C142.257 202.398 143.229 202.082 144.328 202.082C144.601 202.082 144.895 202.099 145.21 202.134C145.526 202.168 145.803 202.214 146.041 202.274V207.107C145.786 207.03 145.432 206.962 144.98 206.902C144.528 206.842 144.115 206.812 143.74 206.812C142.939 206.812 142.223 206.987 141.592 207.337C140.97 207.678 140.476 208.155 140.109 208.768C139.751 209.382 139.572 210.089 139.572 210.891V222H134.126ZM155.179 222.32C153.687 222.32 152.336 221.936 151.126 221.169C149.924 220.393 148.97 219.256 148.262 217.756C147.564 216.247 147.214 214.398 147.214 212.207C147.214 209.957 147.576 208.087 148.301 206.595C149.025 205.095 149.988 203.974 151.19 203.233C152.4 202.483 153.725 202.108 155.166 202.108C156.265 202.108 157.181 202.295 157.914 202.67C158.656 203.037 159.252 203.497 159.704 204.051C160.164 204.597 160.514 205.134 160.752 205.662H160.919V195.818H166.352V222H160.983V218.855H160.752C160.497 219.401 160.135 219.942 159.666 220.479C159.206 221.007 158.605 221.446 157.863 221.795C157.13 222.145 156.235 222.32 155.179 222.32ZM156.904 217.986C157.782 217.986 158.524 217.747 159.129 217.27C159.743 216.784 160.211 216.107 160.535 215.237C160.868 214.368 161.034 213.349 161.034 212.182C161.034 211.014 160.872 210 160.548 209.139C160.224 208.278 159.755 207.614 159.142 207.145C158.528 206.676 157.782 206.442 156.904 206.442C156.01 206.442 155.255 206.685 154.642 207.17C154.028 207.656 153.564 208.33 153.248 209.19C152.933 210.051 152.775 211.048 152.775 212.182C152.775 213.324 152.933 214.334 153.248 215.212C153.572 216.081 154.037 216.763 154.642 217.257C155.255 217.743 156.01 217.986 156.904 217.986ZM187.168 207.963L182.182 208.27C182.097 207.844 181.913 207.46 181.632 207.119C181.351 206.77 180.98 206.493 180.52 206.288C180.068 206.075 179.527 205.969 178.896 205.969C178.053 205.969 177.341 206.148 176.761 206.506C176.182 206.855 175.892 207.324 175.892 207.912C175.892 208.381 176.08 208.777 176.455 209.101C176.83 209.425 177.473 209.685 178.385 209.881L181.939 210.597C183.848 210.989 185.271 211.619 186.209 212.489C187.146 213.358 187.615 214.5 187.615 215.915C187.615 217.202 187.236 218.331 186.477 219.303C185.727 220.274 184.696 221.033 183.384 221.578C182.08 222.115 180.575 222.384 178.871 222.384C176.271 222.384 174.2 221.842 172.658 220.76C171.124 219.669 170.224 218.186 169.96 216.311L175.317 216.03C175.479 216.822 175.871 217.428 176.493 217.845C177.115 218.254 177.912 218.459 178.884 218.459C179.838 218.459 180.605 218.276 181.185 217.909C181.773 217.534 182.071 217.053 182.08 216.464C182.071 215.97 181.862 215.565 181.453 215.25C181.044 214.926 180.413 214.679 179.561 214.509L176.161 213.831C174.243 213.447 172.815 212.783 171.878 211.837C170.949 210.891 170.484 209.685 170.484 208.219C170.484 206.957 170.825 205.871 171.507 204.959C172.197 204.047 173.165 203.344 174.409 202.849C175.662 202.355 177.128 202.108 178.807 202.108C181.287 202.108 183.239 202.632 184.662 203.68C186.094 204.729 186.929 206.156 187.168 207.963ZM90.7884 266H84.8565L93.8949 239.818H101.028L110.054 266H104.122L97.5639 245.801H97.3594L90.7884 266ZM90.4176 255.709H104.429V260.03H90.4176V255.709ZM121.036 273.773C119.271 273.773 117.759 273.53 116.497 273.044C115.244 272.567 114.247 271.915 113.506 271.088C112.764 270.261 112.283 269.332 112.061 268.301L117.098 267.624C117.251 268.016 117.494 268.382 117.827 268.723C118.159 269.064 118.598 269.337 119.143 269.541C119.697 269.754 120.371 269.861 121.163 269.861C122.348 269.861 123.324 269.571 124.091 268.991C124.866 268.42 125.254 267.462 125.254 266.115V262.523H125.024C124.786 263.068 124.428 263.584 123.95 264.07C123.473 264.555 122.859 264.952 122.109 265.259C121.359 265.565 120.464 265.719 119.425 265.719C117.95 265.719 116.608 265.378 115.398 264.696C114.196 264.006 113.237 262.953 112.521 261.538C111.814 260.115 111.46 258.317 111.46 256.143C111.46 253.919 111.822 252.061 112.547 250.57C113.271 249.078 114.234 247.962 115.436 247.22C116.646 246.479 117.972 246.108 119.412 246.108C120.511 246.108 121.432 246.295 122.173 246.67C122.915 247.037 123.511 247.497 123.963 248.051C124.423 248.597 124.777 249.134 125.024 249.662H125.229V246.364H130.636V266.192C130.636 267.862 130.227 269.26 129.409 270.385C128.591 271.51 127.457 272.354 126.009 272.916C124.568 273.487 122.911 273.773 121.036 273.773ZM121.151 261.628C122.028 261.628 122.77 261.411 123.375 260.976C123.989 260.533 124.457 259.902 124.781 259.084C125.114 258.257 125.28 257.268 125.28 256.118C125.28 254.967 125.118 253.97 124.794 253.126C124.47 252.274 124.001 251.614 123.388 251.145C122.774 250.676 122.028 250.442 121.151 250.442C120.256 250.442 119.501 250.685 118.888 251.17C118.274 251.648 117.81 252.312 117.494 253.165C117.179 254.017 117.021 255.001 117.021 256.118C117.021 257.251 117.179 258.232 117.494 259.058C117.818 259.876 118.283 260.511 118.888 260.963C119.501 261.406 120.256 261.628 121.151 261.628ZM140.57 266.371C139.317 266.371 138.2 266.153 137.22 265.719C136.24 265.276 135.464 264.624 134.893 263.763C134.331 262.893 134.05 261.811 134.05 260.516C134.05 259.425 134.25 258.509 134.651 257.767C135.051 257.026 135.597 256.429 136.287 255.977C136.977 255.526 137.761 255.185 138.639 254.955C139.526 254.724 140.455 254.562 141.426 254.469C142.568 254.349 143.489 254.239 144.188 254.136C144.886 254.026 145.393 253.864 145.709 253.651C146.024 253.437 146.182 253.122 146.182 252.705V252.628C146.182 251.818 145.926 251.192 145.415 250.749C144.912 250.305 144.196 250.084 143.267 250.084C142.287 250.084 141.507 250.301 140.928 250.736C140.348 251.162 139.964 251.699 139.777 252.347L134.74 251.938C134.996 250.744 135.499 249.713 136.249 248.844C136.999 247.966 137.966 247.293 139.151 246.824C140.344 246.347 141.724 246.108 143.293 246.108C144.384 246.108 145.428 246.236 146.425 246.491C147.43 246.747 148.321 247.143 149.097 247.68C149.881 248.217 150.499 248.908 150.95 249.751C151.402 250.587 151.628 251.588 151.628 252.756V266H146.463V263.277H146.31C145.994 263.891 145.572 264.432 145.044 264.901C144.516 265.361 143.881 265.723 143.139 265.987C142.398 266.243 141.541 266.371 140.57 266.371ZM142.129 262.612C142.93 262.612 143.638 262.455 144.251 262.139C144.865 261.815 145.347 261.381 145.696 260.835C146.045 260.29 146.22 259.672 146.22 258.982V256.898C146.05 257.009 145.815 257.111 145.517 257.205C145.227 257.29 144.899 257.371 144.533 257.447C144.166 257.516 143.8 257.58 143.433 257.639C143.067 257.69 142.734 257.737 142.436 257.78C141.797 257.874 141.239 258.023 140.761 258.227C140.284 258.432 139.913 258.709 139.649 259.058C139.385 259.399 139.253 259.825 139.253 260.337C139.253 261.078 139.521 261.645 140.058 262.037C140.604 262.42 141.294 262.612 142.129 262.612ZM155.853 266V246.364H161.299V266H155.853ZM158.589 243.832C157.779 243.832 157.085 243.564 156.505 243.027C155.934 242.482 155.648 241.83 155.648 241.071C155.648 240.321 155.934 239.678 156.505 239.141C157.085 238.595 157.779 238.322 158.589 238.322C159.398 238.322 160.089 238.595 160.66 239.141C161.239 239.678 161.529 240.321 161.529 241.071C161.529 241.83 161.239 242.482 160.66 243.027C160.089 243.564 159.398 243.832 158.589 243.832ZM171.108 254.648V266H165.662V246.364H170.852V249.828H171.082C171.517 248.686 172.245 247.783 173.268 247.118C174.291 246.445 175.531 246.108 176.988 246.108C178.352 246.108 179.541 246.406 180.555 247.003C181.569 247.599 182.358 248.452 182.92 249.56C183.483 250.659 183.764 251.972 183.764 253.497V266H178.318V254.469C178.326 253.267 178.02 252.33 177.397 251.656C176.775 250.974 175.919 250.634 174.828 250.634C174.095 250.634 173.447 250.791 172.885 251.107C172.331 251.422 171.896 251.882 171.581 252.487C171.274 253.084 171.116 253.804 171.108 254.648ZM204.394 251.963L199.408 252.27C199.323 251.844 199.14 251.46 198.859 251.119C198.577 250.77 198.207 250.493 197.746 250.288C197.295 250.075 196.754 249.969 196.123 249.969C195.279 249.969 194.567 250.148 193.988 250.506C193.408 250.855 193.119 251.324 193.119 251.912C193.119 252.381 193.306 252.777 193.681 253.101C194.056 253.425 194.7 253.685 195.612 253.881L199.165 254.597C201.075 254.989 202.498 255.619 203.435 256.489C204.373 257.358 204.842 258.5 204.842 259.915C204.842 261.202 204.462 262.331 203.704 263.303C202.954 264.274 201.923 265.033 200.61 265.578C199.306 266.115 197.802 266.384 196.097 266.384C193.498 266.384 191.427 265.842 189.884 264.76C188.35 263.669 187.451 262.186 187.187 260.311L192.543 260.03C192.705 260.822 193.097 261.428 193.719 261.845C194.342 262.254 195.138 262.459 196.11 262.459C197.065 262.459 197.832 262.276 198.411 261.909C198.999 261.534 199.298 261.053 199.306 260.464C199.298 259.97 199.089 259.565 198.68 259.25C198.271 258.926 197.64 258.679 196.788 258.509L193.387 257.831C191.469 257.447 190.042 256.783 189.104 255.837C188.175 254.891 187.711 253.685 187.711 252.219C187.711 250.957 188.052 249.871 188.734 248.959C189.424 248.047 190.391 247.344 191.636 246.849C192.888 246.355 194.354 246.108 196.033 246.108C198.513 246.108 200.465 246.632 201.888 247.68C203.32 248.729 204.156 250.156 204.394 251.963ZM218.716 246.364V250.455H206.89V246.364H218.716ZM209.575 241.659H215.021V259.966C215.021 260.469 215.098 260.861 215.251 261.142C215.404 261.415 215.618 261.607 215.89 261.717C216.172 261.828 216.495 261.884 216.862 261.884C217.118 261.884 217.373 261.862 217.629 261.82C217.885 261.768 218.081 261.73 218.217 261.705L219.074 265.757C218.801 265.842 218.417 265.94 217.923 266.051C217.429 266.17 216.828 266.243 216.12 266.268C214.808 266.32 213.657 266.145 212.669 265.744C211.689 265.344 210.926 264.722 210.38 263.878C209.835 263.034 209.566 261.969 209.575 260.682V241.659ZM103.636 292.281C103.457 291.659 103.206 291.109 102.882 290.632C102.558 290.146 102.162 289.737 101.693 289.405C101.233 289.064 100.705 288.804 100.108 288.625C99.5199 288.446 98.8679 288.357 98.152 288.357C96.8139 288.357 95.6378 288.689 94.6236 289.354C93.6179 290.018 92.8338 290.986 92.2713 292.256C91.7088 293.517 91.4276 295.06 91.4276 296.884C91.4276 298.707 91.7045 300.259 92.2585 301.537C92.8125 302.815 93.5966 303.791 94.6108 304.464C95.625 305.129 96.8224 305.462 98.2031 305.462C99.456 305.462 100.526 305.24 101.412 304.797C102.307 304.345 102.989 303.71 103.457 302.892C103.935 302.074 104.173 301.107 104.173 299.99L105.298 300.156H98.5483V295.989H109.504V299.287C109.504 301.588 109.018 303.565 108.047 305.219C107.075 306.864 105.737 308.134 104.033 309.028C102.328 309.915 100.376 310.358 98.1776 310.358C95.723 310.358 93.5668 309.817 91.7088 308.734C89.8509 307.643 88.402 306.097 87.3622 304.094C86.331 302.082 85.8153 299.696 85.8153 296.935C85.8153 294.812 86.1222 292.92 86.7358 291.259C87.358 289.588 88.2273 288.173 89.3438 287.014C90.4602 285.855 91.7599 284.973 93.2429 284.368C94.7259 283.763 96.3324 283.46 98.0625 283.46C99.5455 283.46 100.926 283.678 102.205 284.112C103.483 284.538 104.616 285.143 105.605 285.928C106.602 286.712 107.416 287.645 108.047 288.727C108.678 289.801 109.082 290.986 109.261 292.281H103.636ZM119.159 310.371C117.907 310.371 116.79 310.153 115.81 309.719C114.83 309.276 114.054 308.624 113.483 307.763C112.921 306.893 112.64 305.811 112.64 304.516C112.64 303.425 112.84 302.509 113.24 301.767C113.641 301.026 114.186 300.429 114.877 299.977C115.567 299.526 116.351 299.185 117.229 298.955C118.115 298.724 119.044 298.562 120.016 298.469C121.158 298.349 122.078 298.239 122.777 298.136C123.476 298.026 123.983 297.864 124.299 297.651C124.614 297.437 124.772 297.122 124.772 296.705V296.628C124.772 295.818 124.516 295.192 124.005 294.749C123.502 294.305 122.786 294.084 121.857 294.084C120.877 294.084 120.097 294.301 119.517 294.736C118.938 295.162 118.554 295.699 118.367 296.347L113.33 295.938C113.586 294.744 114.088 293.713 114.838 292.844C115.588 291.966 116.556 291.293 117.74 290.824C118.934 290.347 120.314 290.108 121.882 290.108C122.973 290.108 124.017 290.236 125.015 290.491C126.02 290.747 126.911 291.143 127.686 291.68C128.471 292.217 129.088 292.908 129.54 293.751C129.992 294.587 130.218 295.588 130.218 296.756V310H125.053V307.277H124.9C124.584 307.891 124.162 308.432 123.634 308.901C123.105 309.361 122.471 309.723 121.729 309.987C120.988 310.243 120.131 310.371 119.159 310.371ZM120.719 306.612C121.52 306.612 122.228 306.455 122.841 306.139C123.455 305.815 123.936 305.381 124.286 304.835C124.635 304.29 124.81 303.672 124.81 302.982V300.898C124.64 301.009 124.405 301.111 124.107 301.205C123.817 301.29 123.489 301.371 123.123 301.447C122.756 301.516 122.39 301.58 122.023 301.639C121.657 301.69 121.324 301.737 121.026 301.78C120.387 301.874 119.828 302.023 119.351 302.227C118.874 302.432 118.503 302.709 118.239 303.058C117.975 303.399 117.843 303.825 117.843 304.337C117.843 305.078 118.111 305.645 118.648 306.037C119.194 306.42 119.884 306.612 120.719 306.612ZM134.443 310V290.364H139.633V293.828H139.863C140.272 292.678 140.954 291.77 141.909 291.105C142.863 290.44 144.005 290.108 145.335 290.108C146.681 290.108 147.828 290.445 148.774 291.118C149.72 291.783 150.35 292.686 150.666 293.828H150.87C151.271 292.703 151.995 291.804 153.044 291.131C154.1 290.449 155.349 290.108 156.789 290.108C158.622 290.108 160.109 290.692 161.251 291.859C162.402 293.018 162.977 294.663 162.977 296.794V310H157.544V297.868C157.544 296.777 157.254 295.959 156.674 295.413C156.095 294.868 155.37 294.595 154.501 294.595C153.512 294.595 152.741 294.911 152.187 295.541C151.633 296.163 151.356 296.986 151.356 298.009V310H146.076V297.753C146.076 296.79 145.799 296.023 145.245 295.452C144.7 294.881 143.98 294.595 143.085 294.595C142.48 294.595 141.934 294.749 141.449 295.055C140.971 295.354 140.592 295.776 140.311 296.321C140.029 296.858 139.889 297.489 139.889 298.213V310H134.443ZM176.228 310.384C174.208 310.384 172.469 309.974 171.012 309.156C169.563 308.33 168.446 307.162 167.662 305.653C166.878 304.136 166.486 302.342 166.486 300.271C166.486 298.251 166.878 296.479 167.662 294.953C168.446 293.428 169.55 292.239 170.973 291.386C172.405 290.534 174.084 290.108 176.01 290.108C177.306 290.108 178.512 290.317 179.628 290.734C180.753 291.143 181.733 291.761 182.569 292.588C183.412 293.415 184.069 294.455 184.537 295.707C185.006 296.952 185.24 298.409 185.24 300.08V301.575H168.659V298.2H180.114C180.114 297.416 179.944 296.722 179.603 296.116C179.262 295.511 178.789 295.038 178.184 294.697C177.587 294.348 176.892 294.173 176.1 294.173C175.273 294.173 174.54 294.365 173.901 294.749C173.27 295.124 172.776 295.631 172.418 296.27C172.06 296.901 171.877 297.604 171.868 298.379V301.588C171.868 302.56 172.047 303.399 172.405 304.107C172.772 304.814 173.287 305.359 173.952 305.743C174.617 306.126 175.405 306.318 176.317 306.318C176.922 306.318 177.476 306.233 177.979 306.062C178.482 305.892 178.912 305.636 179.27 305.295C179.628 304.955 179.901 304.537 180.088 304.043L185.125 304.375C184.87 305.585 184.346 306.642 183.553 307.545C182.769 308.44 181.755 309.139 180.51 309.642C179.275 310.136 177.847 310.384 176.228 310.384ZM196.232 288.382V283.818H217.734V288.382H209.719V310H204.247V288.382H196.232ZM226.619 298.648V310H221.173V283.818H226.466V293.828H226.696C227.139 292.669 227.855 291.761 228.844 291.105C229.832 290.44 231.072 290.108 232.564 290.108C233.928 290.108 235.116 290.406 236.131 291.003C237.153 291.591 237.946 292.439 238.509 293.547C239.08 294.646 239.361 295.963 239.352 297.497V310H233.906V298.469C233.915 297.259 233.608 296.317 232.986 295.643C232.372 294.97 231.511 294.634 230.403 294.634C229.662 294.634 229.006 294.791 228.435 295.107C227.872 295.422 227.429 295.882 227.105 296.487C226.79 297.084 226.628 297.804 226.619 298.648ZM252.587 310.384C250.567 310.384 248.828 309.974 247.371 309.156C245.922 308.33 244.806 307.162 244.022 305.653C243.238 304.136 242.846 302.342 242.846 300.271C242.846 298.251 243.238 296.479 244.022 294.953C244.806 293.428 245.909 292.239 247.333 291.386C248.765 290.534 250.444 290.108 252.37 290.108C253.665 290.108 254.871 290.317 255.988 290.734C257.113 291.143 258.093 291.761 258.928 292.588C259.772 293.415 260.428 294.455 260.897 295.707C261.365 296.952 261.6 298.409 261.6 300.08V301.575H245.019V298.2H256.473C256.473 297.416 256.303 296.722 255.962 296.116C255.621 295.511 255.148 295.038 254.543 294.697C253.946 294.348 253.252 294.173 252.459 294.173C251.632 294.173 250.9 294.365 250.26 294.749C249.63 295.124 249.135 295.631 248.777 296.27C248.419 296.901 248.236 297.604 248.228 298.379V301.588C248.228 302.56 248.407 303.399 248.765 304.107C249.131 304.814 249.647 305.359 250.311 305.743C250.976 306.126 251.765 306.318 252.676 306.318C253.282 306.318 253.836 306.233 254.338 306.062C254.841 305.892 255.272 305.636 255.63 305.295C255.988 304.955 256.26 304.537 256.448 304.043L261.485 304.375C261.229 305.585 260.705 306.642 259.912 307.545C259.128 308.44 258.114 309.139 256.87 309.642C255.634 310.136 254.206 310.384 252.587 310.384ZM274.026 310.384C272.04 310.384 270.323 309.962 268.874 309.118C267.434 308.266 266.321 307.081 265.537 305.564C264.753 304.038 264.361 302.27 264.361 300.259C264.361 298.23 264.753 296.457 265.537 294.94C266.321 293.415 267.434 292.23 268.874 291.386C270.323 290.534 272.04 290.108 274.026 290.108C276.012 290.108 277.725 290.534 279.165 291.386C280.614 292.23 281.73 293.415 282.515 294.94C283.299 296.457 283.691 298.23 283.691 300.259C283.691 302.27 283.299 304.038 282.515 305.564C281.73 307.081 280.614 308.266 279.165 309.118C277.725 309.962 276.012 310.384 274.026 310.384ZM274.051 306.165C274.955 306.165 275.709 305.909 276.314 305.398C276.919 304.878 277.375 304.17 277.682 303.276C277.998 302.381 278.155 301.362 278.155 300.22C278.155 299.078 277.998 298.06 277.682 297.165C277.375 296.27 276.919 295.562 276.314 295.043C275.709 294.523 274.955 294.263 274.051 294.263C273.14 294.263 272.373 294.523 271.75 295.043C271.137 295.562 270.672 296.27 270.357 297.165C270.05 298.06 269.897 299.078 269.897 300.22C269.897 301.362 270.05 302.381 270.357 303.276C270.672 304.17 271.137 304.878 271.75 305.398C272.373 305.909 273.14 306.165 274.051 306.165ZM287.232 310V290.364H292.512V293.79H292.716C293.074 292.571 293.675 291.651 294.519 291.028C295.363 290.398 296.334 290.082 297.434 290.082C297.706 290.082 298 290.099 298.316 290.134C298.631 290.168 298.908 290.214 299.147 290.274V295.107C298.891 295.03 298.537 294.962 298.086 294.902C297.634 294.842 297.221 294.812 296.846 294.812C296.044 294.812 295.328 294.987 294.698 295.337C294.076 295.678 293.581 296.155 293.215 296.768C292.857 297.382 292.678 298.089 292.678 298.891V310H287.232ZM305.922 317.364C305.232 317.364 304.584 317.308 303.979 317.197C303.382 317.095 302.888 316.963 302.496 316.801L303.723 312.736C304.363 312.932 304.938 313.038 305.449 313.055C305.969 313.072 306.417 312.953 306.792 312.697C307.175 312.442 307.486 312.007 307.725 311.393L308.044 310.562L301 290.364H306.728L310.793 304.784H310.998L315.101 290.364H320.867L313.235 312.122C312.868 313.179 312.37 314.099 311.739 314.884C311.117 315.676 310.328 316.286 309.374 316.712C308.419 317.146 307.269 317.364 305.922 317.364Z" fill="black"/>
<path d="M190.714 406.25L177.724 410.978C177.295 411.134 176.946 411.158 176.678 411.052C176.424 410.915 176.218 410.632 176.062 410.203L168.084 388.282C167.928 387.854 167.907 387.516 168.022 387.27C168.151 386.993 168.43 386.777 168.858 386.621L179.65 382.693C181.86 381.889 183.651 381.722 185.023 382.193C186.387 382.642 187.389 383.746 188.029 385.505L188.62 387.129C188.965 388.076 189.079 388.916 188.962 389.648C188.86 390.349 188.524 390.969 187.954 391.509C189.446 391.119 190.698 391.225 191.709 391.827C192.72 392.43 193.525 393.554 194.125 395.201L195.257 398.313C195.947 400.207 195.915 401.803 195.16 403.099C194.429 404.387 192.947 405.437 190.714 406.25ZM179.153 407.01L188.253 403.698C189.2 403.353 189.938 402.995 190.467 402.624C190.987 402.23 191.341 401.833 191.528 401.433C191.737 401.025 191.824 400.597 191.789 400.15C191.745 399.681 191.633 399.198 191.453 398.702L190.665 396.537C190.46 395.973 190.214 395.475 189.929 395.042C189.667 394.601 189.316 394.269 188.877 394.046C188.43 393.8 187.881 393.694 187.228 393.727C186.568 393.737 185.776 393.91 184.851 394.247C185.731 393.646 186.181 393.022 186.201 392.377C186.244 391.722 186.142 391.057 185.896 390.381L185.108 388.216C184.927 387.719 184.702 387.278 184.434 386.89C184.165 386.503 183.815 386.208 183.385 386.008C182.946 385.784 182.4 385.689 181.748 385.722C181.088 385.733 180.296 385.906 179.371 386.243L172.504 388.742L179.153 407.01ZM179.494 386.581C181.186 385.965 182.406 385.879 183.154 386.321C183.903 386.764 184.441 387.437 184.769 388.339L185.557 390.504C185.705 390.91 185.804 391.321 185.853 391.737C185.917 392.122 185.855 392.515 185.669 392.915C185.497 393.284 185.173 393.657 184.697 394.035C184.213 394.39 183.509 394.735 182.585 395.072L176.056 397.448L172.965 388.957L179.494 386.581ZM177.345 390.045L178.675 393.698L181.55 392.652C181.979 392.496 182.254 392.268 182.375 391.969C182.518 391.661 182.508 391.282 182.343 390.831L181.999 389.883C181.835 389.432 181.599 389.135 181.291 388.992C181.006 388.84 180.649 388.842 180.221 388.998L177.345 390.045ZM184.974 394.585C186.666 393.97 187.883 393.91 188.625 394.406C189.39 394.894 189.957 395.645 190.327 396.66L191.115 398.825C191.451 399.75 191.463 400.588 191.149 401.341C190.827 402.071 189.821 402.744 188.129 403.359L179.368 406.548L176.179 397.787L184.974 394.585ZM180.571 398.908L182.024 402.9L186.422 401.299C186.85 401.143 187.125 400.915 187.246 400.616C187.389 400.308 187.379 399.929 187.215 399.478L186.735 398.159C186.57 397.708 186.339 397.422 186.039 397.301C185.754 397.149 185.397 397.151 184.969 397.307L180.571 398.908ZM217.933 396.343L202.236 402.056C201.808 402.212 201.459 402.237 201.191 402.13C200.936 401.993 200.731 401.71 200.575 401.281L192.597 379.36C192.441 378.932 192.42 378.594 192.535 378.348C192.664 378.071 192.943 377.855 193.371 377.699L209.068 371.986C209.496 371.83 209.838 371.821 210.092 371.958C210.361 372.064 210.573 372.332 210.729 372.761L212.169 376.718C212.325 377.147 212.339 377.5 212.21 377.777C212.095 378.023 211.823 378.224 211.395 378.38L202.058 381.778L203.006 384.383L209.603 381.982C210.031 381.826 210.373 381.816 210.627 381.954C210.896 382.06 211.108 382.328 211.264 382.756L212.581 386.376C212.737 386.805 212.751 387.157 212.622 387.434C212.507 387.68 212.235 387.881 211.807 388.037L205.21 390.438L206.269 393.347L215.606 389.949C216.034 389.793 216.376 389.784 216.63 389.921C216.899 390.028 217.111 390.295 217.267 390.724L218.708 394.682C218.863 395.11 218.877 395.463 218.748 395.74C218.633 395.986 218.361 396.187 217.933 396.343ZM214.875 393.625L203.813 397.651L200.624 388.889L208.946 385.86L208.823 385.522L200.501 388.551L197.41 380.06L208.472 376.034L208.349 375.695L196.949 379.845L203.598 398.112L214.998 393.963L214.875 393.625ZM234.654 390.257L229.174 392.251C228.746 392.407 228.397 392.432 228.128 392.325C227.874 392.188 227.669 391.905 227.513 391.477L221.468 374.867L216.495 376.677C216.066 376.833 215.718 376.857 215.449 376.751C215.195 376.613 214.99 376.331 214.834 375.902L213.344 371.809C213.188 371.38 213.167 371.043 213.282 370.797C213.411 370.52 213.69 370.304 214.118 370.148L231.98 363.647C232.409 363.491 232.75 363.481 233.004 363.619C233.273 363.725 233.485 363.993 233.641 364.421L235.131 368.514C235.287 368.943 235.3 369.296 235.171 369.572C235.056 369.819 234.785 370.02 234.356 370.176L229.384 371.986L235.429 388.596C235.585 389.024 235.598 389.377 235.469 389.654C235.355 389.9 235.083 390.101 234.654 390.257ZM230.637 388.271L230.975 388.148L224.45 370.218L231.385 367.694L231.261 367.356L217.053 372.527L217.176 372.866L224.111 370.342L230.637 388.271ZM243.684 375.362C243.463 374.753 243.303 374.173 243.204 373.621C243.128 373.061 243.087 372.527 243.081 372.019L243.226 365.683C243.247 365.037 243.322 364.473 243.453 363.991C243.576 363.487 243.976 363.111 244.653 362.865L247.968 361.658C248.599 361.429 249.124 361.467 249.543 361.775C249.953 362.06 250.389 362.45 250.85 362.946L255.191 367.611C255.513 368.004 255.814 368.444 256.093 368.93C256.394 369.408 256.656 369.951 256.878 370.56L257.259 371.609L244.066 376.411L243.684 375.362ZM246.548 366.389L246.83 372.11L252.141 370.177L248.679 365.614C248.515 365.443 248.361 365.334 248.215 365.285C248.092 365.227 247.963 365.223 247.827 365.272L246.982 365.58C246.846 365.63 246.739 365.72 246.659 365.851C246.601 365.974 246.565 366.154 246.548 366.389ZM259.5 377.766L259.839 377.642L257.216 370.437C256.986 369.805 256.72 369.251 256.419 368.773C256.132 368.265 255.808 367.795 255.447 367.365L251.105 362.7C250.597 362.145 250.106 361.71 249.635 361.397C249.186 361.075 248.589 361.049 247.845 361.32L244.529 362.527C243.763 362.806 243.299 363.217 243.14 363.761C242.98 364.304 242.891 364.937 242.873 365.658L242.727 371.994C242.727 372.556 242.769 373.128 242.853 373.711C242.952 374.262 243.116 374.854 243.346 375.485L245.969 382.691L246.307 382.568L244.189 376.749L257.382 371.947L259.5 377.766ZM250.456 383.126C250.612 383.555 250.626 383.907 250.497 384.184C250.382 384.43 250.11 384.631 249.682 384.787L244.709 386.597C244.28 386.753 243.932 386.778 243.663 386.671C243.409 386.534 243.204 386.251 243.048 385.823L239.797 376.892C239.551 376.215 239.369 375.4 239.252 374.447C239.157 373.485 239.122 372.336 239.146 370.999L239.295 362.249C239.29 361.816 239.391 361.46 239.596 361.181C239.823 360.894 240.162 360.668 240.614 360.504L249.714 357.192C250.142 357.036 250.524 356.999 250.861 357.081C251.22 357.155 251.536 357.359 251.811 357.693L257.549 364.301C258.427 365.309 259.128 366.216 259.651 367.022C260.197 367.82 260.592 368.557 260.839 369.233L264.089 378.164C264.245 378.593 264.259 378.945 264.13 379.222C264.015 379.468 263.743 379.669 263.315 379.825L258.207 381.684C257.756 381.849 257.384 381.881 257.093 381.783C256.816 381.654 256.6 381.375 256.444 380.947L254.72 376.211L248.732 378.39L250.456 383.126Z" fill="black"/>
<rect x="157.282" y="381.562" width="109" height="44" rx="14" transform="rotate(-20 157.282 381.562)" stroke="black" stroke-width="2"/>
<path d="M43.2889 591.328H41.4224C41.3883 591.087 41.3187 590.872 41.2136 590.685C41.1085 590.494 40.9735 590.332 40.8088 590.199C40.644 590.065 40.4537 589.963 40.2377 589.892C40.0247 589.821 39.7931 589.786 39.5431 589.786C39.0914 589.786 38.698 589.898 38.3627 590.122C38.0275 590.344 37.7676 590.668 37.5829 591.094C37.3983 591.517 37.3059 592.031 37.3059 592.636C37.3059 593.259 37.3983 593.781 37.5829 594.205C37.7704 594.628 38.0318 594.947 38.367 595.163C38.7022 595.379 39.09 595.487 39.5304 595.487C39.7775 595.487 40.0062 595.455 40.2164 595.389C40.4295 595.324 40.6184 595.229 40.7832 595.104C40.948 594.976 41.0843 594.821 41.1923 594.639C41.3031 594.457 41.3798 594.25 41.4224 594.017L43.2889 594.026C43.2406 594.426 43.1199 594.812 42.9267 595.185C42.7363 595.554 42.4792 595.885 42.1554 596.178C41.8343 596.467 41.4508 596.697 41.0048 596.868C40.5616 597.036 40.0602 597.119 39.5005 597.119C38.7221 597.119 38.0261 596.943 37.4125 596.591C36.8017 596.239 36.3187 595.729 35.9636 595.061C35.6113 594.393 35.4352 593.585 35.4352 592.636C35.4352 591.685 35.6142 590.875 35.9721 590.207C36.3301 589.54 36.8159 589.031 37.4295 588.682C38.0431 588.33 38.7335 588.153 39.5005 588.153C40.0062 588.153 40.475 588.224 40.9068 588.366C41.3414 588.509 41.7264 588.716 42.0616 588.989C42.3968 589.259 42.6696 589.589 42.8798 589.982C43.0929 590.374 43.2292 590.822 43.2889 591.328ZM46.4444 597.124C46.0268 597.124 45.6547 597.051 45.3279 596.906C45.0012 596.759 44.7427 596.541 44.5524 596.254C44.3649 595.964 44.2711 595.604 44.2711 595.172C44.2711 594.808 44.3379 594.503 44.4714 594.256C44.6049 594.009 44.7868 593.81 45.0169 593.659C45.247 593.509 45.5083 593.395 45.801 593.318C46.0964 593.241 46.4061 593.188 46.7299 593.156C47.1106 593.116 47.4174 593.08 47.6504 593.045C47.8833 593.009 48.0524 592.955 48.1575 592.884C48.2626 592.812 48.3152 592.707 48.3152 592.568V592.543C48.3152 592.273 48.2299 592.064 48.0595 591.916C47.8919 591.768 47.6532 591.695 47.3436 591.695C47.0169 591.695 46.7569 591.767 46.5637 591.912C46.3706 592.054 46.2427 592.233 46.1802 592.449L44.5012 592.312C44.5865 591.915 44.7541 591.571 45.0041 591.281C45.2541 590.989 45.5765 590.764 45.9714 590.608C46.3691 590.449 46.8294 590.369 47.3521 590.369C47.7157 590.369 48.0637 590.412 48.3961 590.497C48.7314 590.582 49.0282 590.714 49.2868 590.893C49.5481 591.072 49.7541 591.303 49.9047 591.584C50.0552 591.862 50.1305 592.196 50.1305 592.585V597H48.4089V596.092H48.3578C48.2527 596.297 48.112 596.477 47.9359 596.634C47.7598 596.787 47.5481 596.908 47.301 596.996C47.0538 597.081 46.7683 597.124 46.4444 597.124ZM46.9643 595.871C47.2314 595.871 47.4672 595.818 47.6717 595.713C47.8762 595.605 48.0368 595.46 48.1532 595.278C48.2697 595.097 48.3279 594.891 48.3279 594.661V593.966C48.2711 594.003 48.193 594.037 48.0936 594.068C47.997 594.097 47.8876 594.124 47.7654 594.149C47.6433 594.172 47.5211 594.193 47.399 594.213C47.2768 594.23 47.166 594.246 47.0666 594.26C46.8535 594.291 46.6674 594.341 46.5083 594.409C46.3493 594.477 46.2257 594.57 46.1376 594.686C46.0495 594.8 46.0055 594.942 46.0055 595.112C46.0055 595.359 46.095 595.548 46.274 595.679C46.4558 595.807 46.6859 595.871 46.9643 595.871ZM53.3542 593.216V597H51.5389V590.455H53.269V591.609H53.3457C53.4906 591.229 53.7335 590.928 54.0744 590.706C54.4153 590.482 54.8287 590.369 55.3145 590.369C55.769 590.369 56.1653 590.469 56.5034 590.668C56.8414 590.866 57.1042 591.151 57.2917 591.52C57.4792 591.886 57.573 592.324 57.573 592.832V597H55.7576V593.156C55.7605 592.756 55.6582 592.443 55.4508 592.219C55.2434 591.991 54.9579 591.878 54.5943 591.878C54.35 591.878 54.1341 591.93 53.9466 592.036C53.7619 592.141 53.617 592.294 53.5119 592.496C53.4096 592.695 53.3571 592.935 53.3542 593.216ZM61.8152 597V588.273H63.6305V591.554H63.6859C63.7654 591.378 63.8805 591.199 64.0311 591.017C64.1845 590.832 64.3833 590.679 64.6277 590.557C64.8748 590.432 65.1816 590.369 65.5481 590.369C66.0254 590.369 66.4657 590.494 66.8691 590.744C67.2725 590.991 67.595 591.365 67.8365 591.865C68.0779 592.362 68.1987 592.986 68.1987 593.736C68.1987 594.466 68.0808 595.082 67.845 595.585C67.612 596.085 67.2939 596.464 66.8904 596.723C66.4899 596.979 66.041 597.107 65.5439 597.107C65.1916 597.107 64.8919 597.048 64.6447 596.932C64.4004 596.815 64.2001 596.669 64.0439 596.493C63.8876 596.314 63.7683 596.134 63.6859 595.952H63.6049V597H61.8152ZM63.5922 593.727C63.5922 594.116 63.6461 594.456 63.7541 594.746C63.862 595.036 64.0183 595.261 64.2228 595.423C64.4274 595.582 64.676 595.662 64.9686 595.662C65.264 595.662 65.514 595.581 65.7186 595.419C65.9231 595.254 66.0779 595.027 66.1831 594.737C66.291 594.445 66.345 594.108 66.345 593.727C66.345 593.349 66.2924 593.017 66.1873 592.73C66.0822 592.443 65.9274 592.219 65.7228 592.057C65.5183 591.895 65.2669 591.814 64.9686 591.814C64.6731 591.814 64.4231 591.892 64.2186 592.048C64.0169 592.205 63.862 592.426 63.7541 592.713C63.6461 593 63.5922 593.338 63.5922 593.727ZM72.3929 597.128C71.7196 597.128 71.1401 596.991 70.6543 596.719C70.1713 596.443 69.7992 596.054 69.5378 595.551C69.2765 595.045 69.1458 594.447 69.1458 593.757C69.1458 593.084 69.2765 592.493 69.5378 591.984C69.7992 591.476 70.1671 591.08 70.6415 590.795C71.1188 590.511 71.6784 590.369 72.3205 590.369C72.7523 590.369 73.1543 590.439 73.5265 590.578C73.9015 590.714 74.2282 590.92 74.5066 591.196C74.7878 591.472 75.0066 591.818 75.1628 592.236C75.3191 592.651 75.3972 593.136 75.3972 593.693V594.192H69.8702V593.067H73.6884C73.6884 592.805 73.6316 592.574 73.5179 592.372C73.4043 592.17 73.2466 592.013 73.0449 591.899C72.8461 591.783 72.6145 591.724 72.3503 591.724C72.0748 591.724 71.8304 591.788 71.6174 591.916C71.4071 592.041 71.2424 592.21 71.123 592.423C71.0037 592.634 70.9426 592.868 70.9398 593.126V594.196C70.9398 594.52 70.9995 594.8 71.1188 595.036C71.2409 595.271 71.4128 595.453 71.6344 595.581C71.856 595.709 72.1188 595.773 72.4228 595.773C72.6245 595.773 72.8091 595.744 72.9767 595.688C73.1444 595.631 73.2878 595.545 73.4071 595.432C73.5265 595.318 73.6174 595.179 73.6799 595.014L75.3588 595.125C75.2736 595.528 75.0989 595.881 74.8347 596.182C74.5733 596.48 74.2353 596.713 73.8205 596.881C73.4086 597.045 72.9327 597.128 72.3929 597.128ZM79.3592 599.455V590.455H81.149V591.554H81.2299C81.3095 591.378 81.4245 591.199 81.5751 591.017C81.7285 590.832 81.9274 590.679 82.1717 590.557C82.4189 590.432 82.7257 590.369 83.0922 590.369C83.5694 590.369 84.0098 590.494 84.4132 590.744C84.8166 590.991 85.139 591.365 85.3805 591.865C85.622 592.362 85.7427 592.986 85.7427 593.736C85.7427 594.466 85.6248 595.082 85.389 595.585C85.1561 596.085 84.8379 596.464 84.4345 596.723C84.0339 596.979 83.585 597.107 83.0879 597.107C82.7356 597.107 82.4359 597.048 82.1887 596.932C81.9444 596.815 81.7441 596.669 81.5879 596.493C81.4316 596.314 81.3123 596.134 81.2299 595.952H81.1745V599.455H79.3592ZM81.1362 593.727C81.1362 594.116 81.1902 594.456 81.2981 594.746C81.4061 595.036 81.5623 595.261 81.7669 595.423C81.9714 595.582 82.22 595.662 82.5126 595.662C82.8081 595.662 83.0581 595.581 83.2626 595.419C83.4672 595.254 83.622 595.027 83.7271 594.737C83.835 594.445 83.889 594.108 83.889 593.727C83.889 593.349 83.8365 593.017 83.7314 592.73C83.6262 592.443 83.4714 592.219 83.2669 592.057C83.0623 591.895 82.8109 591.814 82.5126 591.814C82.2172 591.814 81.9672 591.892 81.7626 592.048C81.5609 592.205 81.4061 592.426 81.2981 592.713C81.1902 593 81.1362 593.338 81.1362 593.727ZM88.7683 588.273V597H86.9529V588.273H88.7683ZM92.089 597.124C91.6713 597.124 91.2992 597.051 90.9725 596.906C90.6458 596.759 90.3873 596.541 90.1969 596.254C90.0094 595.964 89.9157 595.604 89.9157 595.172C89.9157 594.808 89.9824 594.503 90.1159 594.256C90.2495 594.009 90.4313 593.81 90.6614 593.659C90.8915 593.509 91.1529 593.395 91.4455 593.318C91.7409 593.241 92.0506 593.188 92.3745 593.156C92.7551 593.116 93.062 593.08 93.2949 593.045C93.5279 593.009 93.6969 592.955 93.802 592.884C93.9071 592.812 93.9597 592.707 93.9597 592.568V592.543C93.9597 592.273 93.8745 592.064 93.704 591.916C93.5364 591.768 93.2978 591.695 92.9881 591.695C92.6614 591.695 92.4015 591.767 92.2083 591.912C92.0151 592.054 91.8873 592.233 91.8248 592.449L90.1458 592.312C90.231 591.915 90.3986 591.571 90.6486 591.281C90.8986 590.989 91.2211 590.764 91.6159 590.608C92.0137 590.449 92.4739 590.369 92.9966 590.369C93.3603 590.369 93.7083 590.412 94.0407 590.497C94.3759 590.582 94.6728 590.714 94.9313 590.893C95.1926 591.072 95.3986 591.303 95.5492 591.584C95.6998 591.862 95.775 592.196 95.775 592.585V597H94.0534V596.092H94.0023C93.8972 596.297 93.7566 596.477 93.5804 596.634C93.4043 596.787 93.1926 596.908 92.9455 596.996C92.6983 597.081 92.4128 597.124 92.089 597.124ZM92.6088 595.871C92.8759 595.871 93.1117 595.818 93.3162 595.713C93.5208 595.605 93.6813 595.46 93.7978 595.278C93.9142 595.097 93.9725 594.891 93.9725 594.661V593.966C93.9157 594.003 93.8375 594.037 93.7381 594.068C93.6415 594.097 93.5321 594.124 93.41 594.149C93.2878 594.172 93.1657 594.193 93.0435 594.213C92.9213 594.23 92.8105 594.246 92.7111 594.26C92.498 594.291 92.312 594.341 92.1529 594.409C91.9938 594.477 91.8702 594.57 91.7821 594.686C91.6941 594.8 91.65 594.942 91.65 595.112C91.65 595.359 91.7395 595.548 91.9185 595.679C92.1003 595.807 92.3304 595.871 92.6088 595.871ZM98.0698 599.455C97.8397 599.455 97.6238 599.436 97.4221 599.399C97.2232 599.365 97.0584 599.321 96.9277 599.267L97.3368 597.912C97.5499 597.977 97.7417 598.013 97.9121 598.018C98.0854 598.024 98.2346 597.984 98.3596 597.899C98.4874 597.814 98.5911 597.669 98.6706 597.464L98.7772 597.188L96.4292 590.455H98.3382L99.6934 595.261H99.7615L101.129 590.455H103.051L100.507 597.707C100.385 598.06 100.219 598.366 100.009 598.628C99.8013 598.892 99.5385 599.095 99.2203 599.237C98.9022 599.382 98.5186 599.455 98.0698 599.455ZM106.752 597.128C106.079 597.128 105.499 596.991 105.014 596.719C104.531 596.443 104.159 596.054 103.897 595.551C103.636 595.045 103.505 594.447 103.505 593.757C103.505 593.084 103.636 592.493 103.897 591.984C104.159 591.476 104.526 591.08 105.001 590.795C105.478 590.511 106.038 590.369 106.68 590.369C107.112 590.369 107.514 590.439 107.886 590.578C108.261 590.714 108.588 590.92 108.866 591.196C109.147 591.472 109.366 591.818 109.522 592.236C109.678 592.651 109.757 593.136 109.757 593.693V594.192H104.23V593.067H108.048C108.048 592.805 107.991 592.574 107.877 592.372C107.764 592.17 107.606 592.013 107.404 591.899C107.205 591.783 106.974 591.724 106.71 591.724C106.434 591.724 106.19 591.788 105.977 591.916C105.767 592.041 105.602 592.21 105.482 592.423C105.363 592.634 105.302 592.868 105.299 593.126V594.196C105.299 594.52 105.359 594.8 105.478 595.036C105.6 595.271 105.772 595.453 105.994 595.581C106.215 595.709 106.478 595.773 106.782 595.773C106.984 595.773 107.169 595.744 107.336 595.688C107.504 595.631 107.647 595.545 107.767 595.432C107.886 595.318 107.977 595.179 108.039 595.014L109.718 595.125C109.633 595.528 109.458 595.881 109.194 596.182C108.933 596.48 108.595 596.713 108.18 596.881C107.768 597.045 107.292 597.128 106.752 597.128ZM113.353 597.107C112.856 597.107 112.406 596.979 112.002 596.723C111.602 596.464 111.284 596.085 111.048 595.585C110.815 595.082 110.698 594.466 110.698 593.736C110.698 592.986 110.819 592.362 111.061 591.865C111.302 591.365 111.623 590.991 112.024 590.744C112.427 590.494 112.869 590.369 113.349 590.369C113.715 590.369 114.021 590.432 114.265 590.557C114.512 590.679 114.711 590.832 114.862 591.017C115.015 591.199 115.132 591.378 115.211 591.554H115.267V588.273H117.078V597H115.288V595.952H115.211C115.126 596.134 115.005 596.314 114.849 596.493C114.695 596.669 114.495 596.815 114.248 596.932C114.004 597.048 113.705 597.107 113.353 597.107ZM113.928 595.662C114.221 595.662 114.468 595.582 114.67 595.423C114.874 595.261 115.031 595.036 115.139 594.746C115.249 594.456 115.305 594.116 115.305 593.727C115.305 593.338 115.251 593 115.143 592.713C115.035 592.426 114.879 592.205 114.674 592.048C114.47 591.892 114.221 591.814 113.928 591.814C113.63 591.814 113.379 591.895 113.174 592.057C112.97 592.219 112.815 592.443 112.71 592.73C112.605 593.017 112.552 593.349 112.552 593.727C112.552 594.108 112.605 594.445 112.71 594.737C112.818 595.027 112.972 595.254 113.174 595.419C113.379 595.581 113.63 595.662 113.928 595.662ZM122.639 597L120.857 590.455H122.694L123.708 594.852H123.768L124.825 590.455H126.627L127.701 594.827H127.757L128.754 590.455H130.586L128.809 597H126.887L125.762 592.884H125.681L124.556 597H122.639ZM131.555 597V590.455H133.37V597H131.555ZM132.466 589.611C132.197 589.611 131.965 589.521 131.772 589.342C131.581 589.161 131.486 588.943 131.486 588.69C131.486 588.44 131.581 588.226 131.772 588.047C131.965 587.865 132.197 587.774 132.466 587.774C132.736 587.774 132.966 587.865 133.157 588.047C133.35 588.226 133.447 588.44 133.447 588.69C133.447 588.943 133.35 589.161 133.157 589.342C132.966 589.521 132.736 589.611 132.466 589.611ZM138.306 590.455V591.818H134.364V590.455H138.306ZM135.259 588.886H137.074V594.989C137.074 595.156 137.1 595.287 137.151 595.381C137.202 595.472 137.273 595.536 137.364 595.572C137.458 595.609 137.566 595.628 137.688 595.628C137.773 595.628 137.858 595.621 137.943 595.607C138.029 595.589 138.094 595.577 138.139 595.568L138.425 596.919C138.334 596.947 138.206 596.98 138.041 597.017C137.877 597.057 137.676 597.081 137.441 597.089C137.003 597.107 136.619 597.048 136.29 596.915C135.963 596.781 135.709 596.574 135.527 596.293C135.345 596.011 135.256 595.656 135.259 595.227V588.886ZM141.444 593.216V597H139.629V588.273H141.393V591.609H141.47C141.617 591.223 141.856 590.92 142.186 590.702C142.515 590.48 142.928 590.369 143.426 590.369C143.88 590.369 144.276 590.469 144.615 590.668C144.955 590.864 145.22 591.146 145.407 591.516C145.597 591.882 145.691 592.321 145.688 592.832V597H143.873V593.156C143.876 592.753 143.774 592.439 143.566 592.214C143.362 591.99 143.075 591.878 142.705 591.878C142.458 591.878 142.24 591.93 142.049 592.036C141.862 592.141 141.714 592.294 141.606 592.496C141.501 592.695 141.447 592.935 141.444 593.216ZM151.761 597.124C151.343 597.124 150.971 597.051 150.644 596.906C150.318 596.759 150.059 596.541 149.869 596.254C149.681 595.964 149.588 595.604 149.588 595.172C149.588 594.808 149.654 594.503 149.788 594.256C149.921 594.009 150.103 593.81 150.333 593.659C150.563 593.509 150.825 593.395 151.117 593.318C151.413 593.241 151.722 593.188 152.046 593.156C152.427 593.116 152.734 593.08 152.967 593.045C153.2 593.009 153.369 592.955 153.474 592.884C153.579 592.812 153.632 592.707 153.632 592.568V592.543C153.632 592.273 153.546 592.064 153.376 591.916C153.208 591.768 152.97 591.695 152.66 591.695C152.333 591.695 152.073 591.767 151.88 591.912C151.687 592.054 151.559 592.233 151.497 592.449L149.818 592.312C149.903 591.915 150.07 591.571 150.32 591.281C150.57 590.989 150.893 590.764 151.288 590.608C151.686 590.449 152.146 590.369 152.669 590.369C153.032 590.369 153.38 590.412 153.713 590.497C154.048 590.582 154.345 590.714 154.603 590.893C154.865 591.072 155.07 591.303 155.221 591.584C155.372 591.862 155.447 592.196 155.447 592.585V597H153.725V596.092H153.674C153.569 596.297 153.428 596.477 153.252 596.634C153.076 596.787 152.865 596.908 152.617 596.996C152.37 597.081 152.085 597.124 151.761 597.124ZM152.281 595.871C152.548 595.871 152.784 595.818 152.988 595.713C153.193 595.605 153.353 595.46 153.47 595.278C153.586 595.097 153.644 594.891 153.644 594.661V593.966C153.588 594.003 153.509 594.037 153.41 594.068C153.313 594.097 153.204 594.124 153.082 594.149C152.96 594.172 152.838 594.193 152.715 594.213C152.593 594.23 152.482 594.246 152.383 594.26C152.17 594.291 151.984 594.341 151.825 594.409C151.666 594.477 151.542 594.57 151.454 594.686C151.366 594.8 151.322 594.942 151.322 595.112C151.322 595.359 151.411 595.548 151.59 595.679C151.772 595.807 152.002 595.871 152.281 595.871ZM158.671 593.216V597H156.855V590.455H158.585V591.609H158.662C158.807 591.229 159.05 590.928 159.391 590.706C159.732 590.482 160.145 590.369 160.631 590.369C161.085 590.369 161.482 590.469 161.82 590.668C162.158 590.866 162.421 591.151 162.608 591.52C162.796 591.886 162.889 592.324 162.889 592.832V597H161.074V593.156C161.077 592.756 160.975 592.443 160.767 592.219C160.56 591.991 160.274 591.878 159.911 591.878C159.666 591.878 159.45 591.93 159.263 592.036C159.078 592.141 158.933 592.294 158.828 592.496C158.726 592.695 158.673 592.935 158.671 593.216ZM165.206 599.455C164.976 599.455 164.76 599.436 164.559 599.399C164.36 599.365 164.195 599.321 164.064 599.267L164.474 597.912C164.687 597.977 164.878 598.013 165.049 598.018C165.222 598.024 165.371 597.984 165.496 597.899C165.624 597.814 165.728 597.669 165.807 597.464L165.914 597.188L163.566 590.455H165.475L166.83 595.261H166.898L168.266 590.455H170.188L167.644 597.707C167.522 598.06 167.356 598.366 167.145 598.628C166.938 598.892 166.675 599.095 166.357 599.237C166.039 599.382 165.655 599.455 165.206 599.455ZM176.306 597.107C175.809 597.107 175.359 596.979 174.955 596.723C174.555 596.464 174.237 596.085 174.001 595.585C173.768 595.082 173.651 594.466 173.651 593.736C173.651 592.986 173.772 592.362 174.014 591.865C174.255 591.365 174.576 590.991 174.977 590.744C175.38 590.494 175.822 590.369 176.302 590.369C176.669 590.369 176.974 590.432 177.218 590.557C177.465 590.679 177.664 590.832 177.815 591.017C177.968 591.199 178.085 591.378 178.164 591.554H178.22V588.273H180.031V597H178.241V595.952H178.164C178.079 596.134 177.958 596.314 177.802 596.493C177.649 596.669 177.448 596.815 177.201 596.932C176.957 597.048 176.659 597.107 176.306 597.107ZM176.882 595.662C177.174 595.662 177.421 595.582 177.623 595.423C177.828 595.261 177.984 595.036 178.092 594.746C178.203 594.456 178.258 594.116 178.258 593.727C178.258 593.338 178.204 593 178.096 592.713C177.988 592.426 177.832 592.205 177.627 592.048C177.423 591.892 177.174 591.814 176.882 591.814C176.583 591.814 176.332 591.895 176.127 592.057C175.923 592.219 175.768 592.443 175.663 592.73C175.558 593.017 175.505 593.349 175.505 593.727C175.505 594.108 175.558 594.445 175.663 594.737C175.771 595.027 175.926 595.254 176.127 595.419C176.332 595.581 176.583 595.662 176.882 595.662ZM184.506 597.128C183.833 597.128 183.253 596.991 182.768 596.719C182.285 596.443 181.912 596.054 181.651 595.551C181.39 595.045 181.259 594.447 181.259 593.757C181.259 593.084 181.39 592.493 181.651 591.984C181.912 591.476 182.28 591.08 182.755 590.795C183.232 590.511 183.792 590.369 184.434 590.369C184.866 590.369 185.268 590.439 185.64 590.578C186.015 590.714 186.341 590.92 186.62 591.196C186.901 591.472 187.12 591.818 187.276 592.236C187.432 592.651 187.51 593.136 187.51 593.693V594.192H181.983V593.067H185.802C185.802 592.805 185.745 592.574 185.631 592.372C185.518 592.17 185.36 592.013 185.158 591.899C184.959 591.783 184.728 591.724 184.464 591.724C184.188 591.724 183.944 591.788 183.731 591.916C183.52 592.041 183.356 592.21 183.236 592.423C183.117 592.634 183.056 592.868 183.053 593.126V594.196C183.053 594.52 183.113 594.8 183.232 595.036C183.354 595.271 183.526 595.453 183.748 595.581C183.969 595.709 184.232 595.773 184.536 595.773C184.738 595.773 184.922 595.744 185.09 595.688C185.258 595.631 185.401 595.545 185.52 595.432C185.64 595.318 185.731 595.179 185.793 595.014L187.472 595.125C187.387 595.528 187.212 595.881 186.948 596.182C186.687 596.48 186.349 596.713 185.934 596.881C185.522 597.045 185.046 597.128 184.506 597.128ZM191.653 597.128C190.982 597.128 190.405 596.986 189.922 596.702C189.442 596.415 189.073 596.017 188.814 595.509C188.559 595 188.431 594.415 188.431 593.753C188.431 593.082 188.56 592.494 188.819 591.989C189.08 591.48 189.451 591.084 189.931 590.8C190.411 590.513 190.982 590.369 191.644 590.369C192.215 590.369 192.715 590.473 193.144 590.68C193.573 590.888 193.912 591.179 194.162 591.554C194.412 591.929 194.55 592.369 194.576 592.875H192.863C192.814 592.548 192.687 592.286 192.479 592.087C192.275 591.885 192.006 591.784 191.674 591.784C191.393 591.784 191.147 591.861 190.937 592.014C190.729 592.165 190.567 592.385 190.451 592.675C190.334 592.964 190.276 593.315 190.276 593.727C190.276 594.145 190.333 594.5 190.447 594.793C190.563 595.085 190.726 595.308 190.937 595.462C191.147 595.615 191.393 595.692 191.674 595.692C191.881 595.692 192.067 595.649 192.232 595.564C192.4 595.479 192.537 595.355 192.645 595.193C192.756 595.028 192.829 594.831 192.863 594.601H194.576C194.547 595.101 194.411 595.541 194.167 595.922C193.925 596.3 193.591 596.595 193.165 596.808C192.739 597.021 192.235 597.128 191.653 597.128ZM197.383 595.116L197.387 592.939H197.651L199.748 590.455H201.832L199.015 593.744H198.585L197.383 595.116ZM195.738 597V588.273H197.553V597H195.738ZM199.829 597L197.903 594.149L199.113 592.866L201.955 597H199.829ZM208.457 597.128C207.795 597.128 207.223 596.987 206.74 596.706C206.26 596.422 205.889 596.027 205.628 595.521C205.366 595.013 205.236 594.423 205.236 593.753C205.236 593.077 205.366 592.486 205.628 591.98C205.889 591.472 206.26 591.077 206.74 590.795C207.223 590.511 207.795 590.369 208.457 590.369C209.119 590.369 209.69 590.511 210.17 590.795C210.653 591.077 211.025 591.472 211.287 591.98C211.548 592.486 211.679 593.077 211.679 593.753C211.679 594.423 211.548 595.013 211.287 595.521C211.025 596.027 210.653 596.422 210.17 596.706C209.69 596.987 209.119 597.128 208.457 597.128ZM208.466 595.722C208.767 595.722 209.018 595.636 209.22 595.466C209.422 595.293 209.574 595.057 209.676 594.759C209.781 594.46 209.834 594.121 209.834 593.74C209.834 593.359 209.781 593.02 209.676 592.722C209.574 592.423 209.422 592.187 209.22 592.014C209.018 591.841 208.767 591.754 208.466 591.754C208.162 591.754 207.906 591.841 207.699 592.014C207.494 592.187 207.339 592.423 207.234 592.722C207.132 593.02 207.081 593.359 207.081 593.74C207.081 594.121 207.132 594.46 207.234 594.759C207.339 595.057 207.494 595.293 207.699 595.466C207.906 595.636 208.162 595.722 208.466 595.722ZM216.379 590.455V591.818H212.339V590.455H216.379ZM213.264 597V589.982C213.264 589.507 213.356 589.114 213.541 588.801C213.729 588.489 213.984 588.254 214.308 588.098C214.632 587.942 215 587.864 215.412 587.864C215.69 587.864 215.944 587.885 216.175 587.928C216.407 587.97 216.581 588.009 216.694 588.043L216.371 589.406C216.3 589.384 216.211 589.362 216.106 589.342C216.004 589.322 215.899 589.312 215.791 589.312C215.524 589.312 215.338 589.375 215.233 589.5C215.128 589.622 215.075 589.794 215.075 590.016V597H213.264ZM228 591.328H226.133C226.099 591.087 226.03 590.872 225.925 590.685C225.819 590.494 225.684 590.332 225.52 590.199C225.355 590.065 225.165 589.963 224.949 589.892C224.736 589.821 224.504 589.786 224.254 589.786C223.802 589.786 223.409 589.898 223.074 590.122C222.738 590.344 222.479 590.668 222.294 591.094C222.109 591.517 222.017 592.031 222.017 592.636C222.017 593.259 222.109 593.781 222.294 594.205C222.481 594.628 222.743 594.947 223.078 595.163C223.413 595.379 223.801 595.487 224.241 595.487C224.488 595.487 224.717 595.455 224.927 595.389C225.14 595.324 225.329 595.229 225.494 595.104C225.659 594.976 225.795 594.821 225.903 594.639C226.014 594.457 226.091 594.25 226.133 594.017L228 594.026C227.952 594.426 227.831 594.812 227.638 595.185C227.447 595.554 227.19 595.885 226.866 596.178C226.545 596.467 226.162 596.697 225.716 596.868C225.273 597.036 224.771 597.119 224.211 597.119C223.433 597.119 222.737 596.943 222.123 596.591C221.513 596.239 221.03 595.729 220.675 595.061C220.322 594.393 220.146 593.585 220.146 592.636C220.146 591.685 220.325 590.875 220.683 590.207C221.041 589.54 221.527 589.031 222.14 588.682C222.754 588.33 223.444 588.153 224.211 588.153C224.717 588.153 225.186 588.224 225.618 588.366C226.052 588.509 226.437 588.716 226.773 588.989C227.108 589.259 227.381 589.589 227.591 589.982C227.804 590.374 227.94 590.822 228 591.328ZM231.155 597.124C230.738 597.124 230.366 597.051 230.039 596.906C229.712 596.759 229.454 596.541 229.263 596.254C229.076 595.964 228.982 595.604 228.982 595.172C228.982 594.808 229.049 594.503 229.182 594.256C229.316 594.009 229.498 593.81 229.728 593.659C229.958 593.509 230.219 593.395 230.512 593.318C230.807 593.241 231.117 593.188 231.441 593.156C231.822 593.116 232.128 593.08 232.361 593.045C232.594 593.009 232.763 592.955 232.868 592.884C232.974 592.812 233.026 592.707 233.026 592.568V592.543C233.026 592.273 232.941 592.064 232.77 591.916C232.603 591.768 232.364 591.695 232.055 591.695C231.728 591.695 231.468 591.767 231.275 591.912C231.081 592.054 230.954 592.233 230.891 592.449L229.212 592.312C229.297 591.915 229.465 591.571 229.715 591.281C229.965 590.989 230.287 590.764 230.682 590.608C231.08 590.449 231.54 590.369 232.063 590.369C232.427 590.369 232.775 590.412 233.107 590.497C233.442 590.582 233.739 590.714 233.998 590.893C234.259 591.072 234.465 591.303 234.616 591.584C234.766 591.862 234.841 592.196 234.841 592.585V597H233.12V596.092H233.069C232.964 596.297 232.823 596.477 232.647 596.634C232.471 596.787 232.259 596.908 232.012 596.996C231.765 597.081 231.479 597.124 231.155 597.124ZM231.675 595.871C231.942 595.871 232.178 595.818 232.383 595.713C232.587 595.605 232.748 595.46 232.864 595.278C232.981 595.097 233.039 594.891 233.039 594.661V593.966C232.982 594.003 232.904 594.037 232.805 594.068C232.708 594.097 232.599 594.124 232.476 594.149C232.354 594.172 232.232 594.193 232.11 594.213C231.988 594.23 231.877 594.246 231.778 594.26C231.564 594.291 231.378 594.341 231.219 594.409C231.06 594.477 230.937 594.57 230.849 594.686C230.76 594.8 230.716 594.942 230.716 595.112C230.716 595.359 230.806 595.548 230.985 595.679C231.167 595.807 231.397 595.871 231.675 595.871ZM236.25 597V590.455H238.01V591.597H238.078C238.197 591.19 238.398 590.884 238.679 590.676C238.96 590.466 239.284 590.361 239.65 590.361C239.741 590.361 239.839 590.366 239.944 590.378C240.05 590.389 240.142 590.405 240.221 590.425V592.036C240.136 592.01 240.018 591.987 239.868 591.967C239.717 591.947 239.579 591.938 239.454 591.938C239.187 591.938 238.949 591.996 238.738 592.112C238.531 592.226 238.366 592.385 238.244 592.589C238.125 592.794 238.065 593.03 238.065 593.297V597H236.25ZM243.267 597.107C242.77 597.107 242.32 596.979 241.916 596.723C241.516 596.464 241.198 596.085 240.962 595.585C240.729 595.082 240.612 594.466 240.612 593.736C240.612 592.986 240.733 592.362 240.975 591.865C241.216 591.365 241.537 590.991 241.938 590.744C242.341 590.494 242.783 590.369 243.263 590.369C243.629 590.369 243.935 590.432 244.179 590.557C244.426 590.679 244.625 590.832 244.776 591.017C244.929 591.199 245.046 591.378 245.125 591.554H245.181V588.273H246.992V597H245.202V595.952H245.125C245.04 596.134 244.919 596.314 244.763 596.493C244.61 596.669 244.409 596.815 244.162 596.932C243.918 597.048 243.619 597.107 243.267 597.107ZM243.843 595.662C244.135 595.662 244.382 595.582 244.584 595.423C244.789 595.261 244.945 595.036 245.053 594.746C245.164 594.456 245.219 594.116 245.219 593.727C245.219 593.338 245.165 593 245.057 592.713C244.949 592.426 244.793 592.205 244.588 592.048C244.384 591.892 244.135 591.814 243.843 591.814C243.544 591.814 243.293 591.895 243.088 592.057C242.884 592.219 242.729 592.443 242.624 592.73C242.519 593.017 242.466 593.349 242.466 593.727C242.466 594.108 242.519 594.445 242.624 594.737C242.732 595.027 242.887 595.254 243.088 595.419C243.293 595.581 243.544 595.662 243.843 595.662ZM253.93 592.321L252.268 592.423C252.24 592.281 252.179 592.153 252.085 592.04C251.991 591.923 251.868 591.831 251.714 591.763C251.564 591.692 251.383 591.656 251.173 591.656C250.892 591.656 250.655 591.716 250.461 591.835C250.268 591.952 250.172 592.108 250.172 592.304C250.172 592.46 250.234 592.592 250.359 592.7C250.484 592.808 250.699 592.895 251.003 592.96L252.187 593.199C252.824 593.33 253.298 593.54 253.611 593.83C253.923 594.119 254.079 594.5 254.079 594.972C254.079 595.401 253.953 595.777 253.7 596.101C253.45 596.425 253.106 596.678 252.669 596.859C252.234 597.038 251.733 597.128 251.165 597.128C250.298 597.128 249.608 596.947 249.094 596.587C248.582 596.223 248.282 595.729 248.194 595.104L249.98 595.01C250.034 595.274 250.165 595.476 250.372 595.615C250.579 595.751 250.845 595.82 251.169 595.82C251.487 595.82 251.743 595.759 251.936 595.636C252.132 595.511 252.231 595.351 252.234 595.155C252.231 594.99 252.162 594.855 252.025 594.75C251.889 594.642 251.679 594.56 251.395 594.503L250.261 594.277C249.622 594.149 249.146 593.928 248.834 593.612C248.524 593.297 248.369 592.895 248.369 592.406C248.369 591.986 248.483 591.624 248.71 591.32C248.94 591.016 249.263 590.781 249.677 590.616C250.095 590.452 250.584 590.369 251.143 590.369C251.97 590.369 252.621 590.544 253.095 590.893C253.572 591.243 253.851 591.719 253.93 592.321ZM259.538 597H257.561L260.574 588.273H262.952L265.96 597H263.983L261.797 590.267H261.729L259.538 597ZM259.415 593.57H264.085V595.01H259.415V593.57ZM269.621 599.591C269.032 599.591 268.528 599.51 268.108 599.348C267.69 599.189 267.358 598.972 267.111 598.696C266.863 598.42 266.703 598.111 266.629 597.767L268.308 597.541C268.359 597.672 268.44 597.794 268.551 597.908C268.662 598.021 268.808 598.112 268.99 598.18C269.175 598.251 269.399 598.287 269.663 598.287C270.058 598.287 270.383 598.19 270.639 597.997C270.898 597.807 271.027 597.487 271.027 597.038V595.841H270.95C270.871 596.023 270.751 596.195 270.592 596.357C270.433 596.518 270.229 596.651 269.979 596.753C269.729 596.855 269.43 596.906 269.084 596.906C268.592 596.906 268.145 596.793 267.741 596.565C267.341 596.335 267.021 595.984 266.782 595.513C266.547 595.038 266.429 594.439 266.429 593.714C266.429 592.973 266.55 592.354 266.791 591.857C267.032 591.359 267.354 590.987 267.754 590.74C268.157 590.493 268.599 590.369 269.079 590.369C269.446 590.369 269.753 590.432 270 590.557C270.247 590.679 270.446 590.832 270.596 591.017C270.75 591.199 270.868 591.378 270.95 591.554H271.018V590.455H272.821V597.064C272.821 597.621 272.684 598.087 272.412 598.462C272.139 598.837 271.761 599.118 271.278 599.305C270.798 599.496 270.246 599.591 269.621 599.591ZM269.659 595.543C269.952 595.543 270.199 595.47 270.4 595.325C270.605 595.178 270.761 594.967 270.869 594.695C270.98 594.419 271.035 594.089 271.035 593.706C271.035 593.322 270.981 592.99 270.873 592.709C270.765 592.425 270.609 592.205 270.405 592.048C270.2 591.892 269.952 591.814 269.659 591.814C269.361 591.814 269.109 591.895 268.905 592.057C268.7 592.216 268.545 592.437 268.44 592.722C268.335 593.006 268.282 593.334 268.282 593.706C268.282 594.084 268.335 594.411 268.44 594.686C268.548 594.959 268.703 595.17 268.905 595.321C269.109 595.469 269.361 595.543 269.659 595.543ZM276.132 597.124C275.714 597.124 275.342 597.051 275.015 596.906C274.689 596.759 274.43 596.541 274.24 596.254C274.052 595.964 273.959 595.604 273.959 595.172C273.959 594.808 274.025 594.503 274.159 594.256C274.292 594.009 274.474 593.81 274.704 593.659C274.934 593.509 275.196 593.395 275.488 593.318C275.784 593.241 276.094 593.188 276.417 593.156C276.798 593.116 277.105 593.08 277.338 593.045C277.571 593.009 277.74 592.955 277.845 592.884C277.95 592.812 278.003 592.707 278.003 592.568V592.543C278.003 592.273 277.917 592.064 277.747 591.916C277.579 591.768 277.341 591.695 277.031 591.695C276.704 591.695 276.444 591.767 276.251 591.912C276.058 592.054 275.93 592.233 275.868 592.449L274.189 592.312C274.274 591.915 274.442 591.571 274.692 591.281C274.942 590.989 275.264 590.764 275.659 590.608C276.057 590.449 276.517 590.369 277.04 590.369C277.403 590.369 277.751 590.412 278.084 590.497C278.419 590.582 278.716 590.714 278.974 590.893C279.236 591.072 279.442 591.303 279.592 591.584C279.743 591.862 279.818 592.196 279.818 592.585V597H278.096V596.092H278.045C277.94 596.297 277.8 596.477 277.623 596.634C277.447 596.787 277.236 596.908 276.988 596.996C276.741 597.081 276.456 597.124 276.132 597.124ZM276.652 595.871C276.919 595.871 277.155 595.818 277.359 595.713C277.564 595.605 277.724 595.46 277.841 595.278C277.957 595.097 278.015 594.891 278.015 594.661V593.966C277.959 594.003 277.881 594.037 277.781 594.068C277.684 594.097 277.575 594.124 277.453 594.149C277.331 594.172 277.209 594.193 277.086 594.213C276.964 594.23 276.854 594.246 276.754 594.26C276.541 594.291 276.355 594.341 276.196 594.409C276.037 594.477 275.913 594.57 275.825 594.686C275.737 594.8 275.693 594.942 275.693 595.112C275.693 595.359 275.782 595.548 275.961 595.679C276.143 595.807 276.373 595.871 276.652 595.871ZM281.226 597V590.455H283.042V597H281.226ZM282.138 589.611C281.868 589.611 281.637 589.521 281.444 589.342C281.253 589.161 281.158 588.943 281.158 588.69C281.158 588.44 281.253 588.226 281.444 588.047C281.637 587.865 281.868 587.774 282.138 587.774C282.408 587.774 282.638 587.865 282.829 588.047C283.022 588.226 283.118 588.44 283.118 588.69C283.118 588.943 283.022 589.161 282.829 589.342C282.638 589.521 282.408 589.611 282.138 589.611ZM286.311 593.216V597H284.496V590.455H286.226V591.609H286.303C286.448 591.229 286.691 590.928 287.031 590.706C287.372 590.482 287.786 590.369 288.271 590.369C288.726 590.369 289.122 590.469 289.46 590.668C289.798 590.866 290.061 591.151 290.249 591.52C290.436 591.886 290.53 592.324 290.53 592.832V597H288.715V593.156C288.718 592.756 288.615 592.443 288.408 592.219C288.2 591.991 287.915 591.878 287.551 591.878C287.307 591.878 287.091 591.93 286.904 592.036C286.719 592.141 286.574 592.294 286.469 592.496C286.367 592.695 286.314 592.935 286.311 593.216ZM297.407 592.321L295.745 592.423C295.716 592.281 295.655 592.153 295.562 592.04C295.468 591.923 295.344 591.831 295.191 591.763C295.04 591.692 294.86 591.656 294.65 591.656C294.368 591.656 294.131 591.716 293.938 591.835C293.745 591.952 293.648 592.108 293.648 592.304C293.648 592.46 293.711 592.592 293.836 592.7C293.961 592.808 294.175 592.895 294.479 592.96L295.664 593.199C296.3 593.33 296.775 593.54 297.087 593.83C297.4 594.119 297.556 594.5 297.556 594.972C297.556 595.401 297.43 595.777 297.177 596.101C296.927 596.425 296.583 596.678 296.145 596.859C295.711 597.038 295.209 597.128 294.641 597.128C293.775 597.128 293.084 596.947 292.57 596.587C292.059 596.223 291.759 595.729 291.671 595.104L293.456 595.01C293.51 595.274 293.641 595.476 293.849 595.615C294.056 595.751 294.322 595.82 294.645 595.82C294.964 595.82 295.219 595.759 295.412 595.636C295.608 595.511 295.708 595.351 295.711 595.155C295.708 594.99 295.638 594.855 295.502 594.75C295.366 594.642 295.155 594.56 294.871 594.503L293.738 594.277C293.099 594.149 292.623 593.928 292.31 593.612C292.001 593.297 291.846 592.895 291.846 592.406C291.846 591.986 291.959 591.624 292.187 591.32C292.417 591.016 292.739 590.781 293.154 590.616C293.572 590.452 294.06 590.369 294.62 590.369C295.447 590.369 296.097 590.544 296.572 590.893C297.049 591.243 297.327 591.719 297.407 592.321ZM302.181 590.455V591.818H298.239V590.455H302.181ZM299.134 588.886H300.949V594.989C300.949 595.156 300.975 595.287 301.026 595.381C301.077 595.472 301.148 595.536 301.239 595.572C301.333 595.609 301.441 595.628 301.563 595.628C301.648 595.628 301.733 595.621 301.818 595.607C301.904 595.589 301.969 595.577 302.014 595.568L302.3 596.919C302.209 596.947 302.081 596.98 301.916 597.017C301.752 597.057 301.551 597.081 301.316 597.089C300.878 597.107 300.494 597.048 300.165 596.915C299.838 596.781 299.584 596.574 299.402 596.293C299.22 596.011 299.131 595.656 299.134 595.227V588.886ZM306.175 597V588.273H308.02V591.874H311.765V588.273H313.606V597H311.765V593.395H308.02V597H306.175ZM319.291 594.213V590.455H321.106V597H319.363V595.811H319.295C319.148 596.195 318.902 596.503 318.558 596.736C318.217 596.969 317.801 597.085 317.309 597.085C316.872 597.085 316.487 596.986 316.155 596.787C315.822 596.588 315.562 596.305 315.375 595.939C315.19 595.572 315.096 595.134 315.094 594.622V590.455H316.909V594.298C316.912 594.685 317.015 594.99 317.22 595.214C317.425 595.439 317.699 595.551 318.042 595.551C318.261 595.551 318.466 595.501 318.656 595.402C318.846 595.3 319 595.149 319.116 594.95C319.236 594.751 319.294 594.506 319.291 594.213ZM322.558 597V590.455H324.289V591.609H324.365C324.502 591.226 324.729 590.923 325.047 590.702C325.365 590.48 325.746 590.369 326.189 590.369C326.638 590.369 327.02 590.482 327.335 590.706C327.651 590.928 327.861 591.229 327.966 591.609H328.034C328.168 591.234 328.409 590.935 328.759 590.71C329.111 590.483 329.527 590.369 330.007 590.369C330.618 590.369 331.114 590.564 331.494 590.953C331.878 591.339 332.07 591.888 332.07 592.598V597H330.259V592.956C330.259 592.592 330.162 592.32 329.969 592.138C329.776 591.956 329.534 591.865 329.244 591.865C328.915 591.865 328.658 591.97 328.473 592.18C328.289 592.388 328.196 592.662 328.196 593.003V597H326.436V592.918C326.436 592.597 326.344 592.341 326.159 592.151C325.977 591.96 325.737 591.865 325.439 591.865C325.237 591.865 325.056 591.916 324.894 592.018C324.735 592.118 324.608 592.259 324.514 592.44C324.421 592.619 324.374 592.83 324.374 593.071V597H322.558ZM335.37 597.124C334.953 597.124 334.58 597.051 334.254 596.906C333.927 596.759 333.669 596.541 333.478 596.254C333.291 595.964 333.197 595.604 333.197 595.172C333.197 594.808 333.264 594.503 333.397 594.256C333.531 594.009 333.713 593.81 333.943 593.659C334.173 593.509 334.434 593.395 334.727 593.318C335.022 593.241 335.332 593.188 335.656 593.156C336.036 593.116 336.343 593.08 336.576 593.045C336.809 593.009 336.978 592.955 337.083 592.884C337.188 592.812 337.241 592.707 337.241 592.568V592.543C337.241 592.273 337.156 592.064 336.985 591.916C336.818 591.768 336.579 591.695 336.269 591.695C335.943 591.695 335.683 591.767 335.49 591.912C335.296 592.054 335.169 592.233 335.106 592.449L333.427 592.312C333.512 591.915 333.68 591.571 333.93 591.281C334.18 590.989 334.502 590.764 334.897 590.608C335.295 590.449 335.755 590.369 336.278 590.369C336.642 590.369 336.99 590.412 337.322 590.497C337.657 590.582 337.954 590.714 338.213 590.893C338.474 591.072 338.68 591.303 338.83 591.584C338.981 591.862 339.056 592.196 339.056 592.585V597H337.335V596.092H337.284C337.178 596.297 337.038 596.477 336.862 596.634C336.686 596.787 336.474 596.908 336.227 596.996C335.98 597.081 335.694 597.124 335.37 597.124ZM335.89 595.871C336.157 595.871 336.393 595.818 336.597 595.713C336.802 595.605 336.963 595.46 337.079 595.278C337.195 595.097 337.254 594.891 337.254 594.661V593.966C337.197 594.003 337.119 594.037 337.019 594.068C336.923 594.097 336.813 594.124 336.691 594.149C336.569 594.172 336.447 594.193 336.325 594.213C336.203 594.23 336.092 594.246 335.992 594.26C335.779 594.291 335.593 594.341 335.434 594.409C335.275 594.477 335.151 594.57 335.063 594.686C334.975 594.8 334.931 594.942 334.931 595.112C334.931 595.359 335.021 595.548 335.2 595.679C335.382 595.807 335.612 595.871 335.89 595.871ZM342.28 593.216V597H340.465V590.455H342.195V591.609H342.271C342.416 591.229 342.659 590.928 343 590.706C343.341 590.482 343.754 590.369 344.24 590.369C344.695 590.369 345.091 590.469 345.429 590.668C345.767 590.866 346.03 591.151 346.218 591.52C346.405 591.886 346.499 592.324 346.499 592.832V597H344.683V593.156C344.686 592.756 344.584 592.443 344.377 592.219C344.169 591.991 343.884 591.878 343.52 591.878C343.276 591.878 343.06 591.93 342.872 592.036C342.688 592.141 342.543 592.294 342.438 592.496C342.335 592.695 342.283 592.935 342.28 593.216ZM347.93 597V590.455H349.745V597H347.93ZM348.841 589.611C348.572 589.611 348.34 589.521 348.147 589.342C347.956 589.161 347.861 588.943 347.861 588.69C347.861 588.44 347.956 588.226 348.147 588.047C348.34 587.865 348.572 587.774 348.841 587.774C349.111 587.774 349.341 587.865 349.532 588.047C349.725 588.226 349.822 588.44 349.822 588.69C349.822 588.943 349.725 589.161 349.532 589.342C349.341 589.521 349.111 589.611 348.841 589.611ZM354.681 590.455V591.818H350.739V590.455H354.681ZM351.634 588.886H353.449V594.989C353.449 595.156 353.475 595.287 353.526 595.381C353.577 595.472 353.648 595.536 353.739 595.572C353.833 595.609 353.941 595.628 354.063 595.628C354.148 595.628 354.233 595.621 354.318 595.607C354.404 595.589 354.469 595.577 354.514 595.568L354.8 596.919C354.709 596.947 354.581 596.98 354.416 597.017C354.252 597.057 354.051 597.081 353.816 597.089C353.378 597.107 352.994 597.048 352.665 596.915C352.338 596.781 352.084 596.574 351.902 596.293C351.72 596.011 351.631 595.656 351.634 595.227V588.886ZM356.984 599.455C356.754 599.455 356.538 599.436 356.336 599.399C356.137 599.365 355.972 599.321 355.842 599.267L356.251 597.912C356.464 597.977 356.656 598.013 356.826 598.018C356.999 598.024 357.149 597.984 357.274 597.899C357.401 597.814 357.505 597.669 357.585 597.464L357.691 597.188L355.343 590.455H357.252L358.607 595.261H358.676L360.044 590.455H361.965L359.421 597.707C359.299 598.06 359.133 598.366 358.923 598.628C358.715 598.892 358.453 599.095 358.134 599.237C357.816 599.382 357.433 599.455 356.984 599.455Z" fill="black"/>
</svg>
