<svg width="80" height="80" viewBox="0 0 80 80" fill="none" xmlns="http://www.w3.org/2000/svg">
<g clip-path="url(#clip0_5_35)">
<path d="M79.8736 14.8475L63.2906 65.1115C63.0832 65.7404 62.6423 66.2516 62.049 66.5506C61.6964 66.7282 61.3156 66.818 60.9324 66.818C60.6709 66.818 60.4085 66.7762 60.1533 66.6919L56.0053 65.3236C55.1694 65.0479 54.7154 64.1468 54.9911 63.3111C55.2667 62.4752 56.1689 62.0212 57.0036 62.2969L60.4839 63.4449L76.6269 14.5157L45.016 4.08645L40.5307 17.6826C40.2548 18.5185 39.3528 18.9723 38.5182 18.6966C37.6822 18.421 37.2283 17.5199 37.5039 16.684L42.2096 2.42028C42.6395 1.1194 44.0466 0.410262 45.3471 0.839463L78.2933 11.7092C78.9224 11.9164 79.4338 12.3574 79.7328 12.9509C80.0317 13.5445 80.0816 14.218 79.8736 14.8475ZM47.2157 13.4133C47.3816 13.468 47.5498 13.494 47.7154 13.494C48.3841 13.494 49.0074 13.0694 49.2284 12.3992L49.7036 10.959C49.9795 10.1232 49.5253 9.22217 48.6896 8.9463C47.8542 8.67062 46.9524 9.12443 46.6769 9.96034L46.2016 11.4006C45.926 12.2365 46.3799 13.1376 47.2157 13.4133ZM56.2721 55.1322L55.7969 56.5724C55.521 57.4082 55.9752 58.3094 56.8111 58.5851C56.9768 58.6398 57.145 58.6658 57.3106 58.6658C57.9795 58.6658 58.6026 58.2412 58.8236 57.5711L59.2988 56.1308C59.5747 55.2951 59.1205 54.3938 58.2846 54.1181C57.4499 53.8428 56.5478 54.2961 56.2721 55.1322ZM45.0582 27.1252C45.5175 25.7333 46.4917 24.6035 47.8012 23.9434C49.1111 23.2833 50.5988 23.1728 51.9909 23.6321C53.7089 24.1989 54.6424 25.2042 55.1828 26.3915C56.3238 25.7588 57.672 25.5063 59.3907 26.0735C62.2645 27.0218 63.8317 30.1317 62.8838 33.0058C61.4558 37.3336 56.1535 40.0048 51.0259 42.588C50.7961 42.7038 50.5512 42.7587 50.3102 42.7587C49.7275 42.7587 49.166 42.4378 48.8859 41.8818C46.302 36.7544 43.6303 31.4521 45.0582 27.1252ZM51.0162 39.0214C55.0812 36.9485 58.9486 34.7607 59.8571 32.0075C60.2546 30.8023 59.5974 29.4979 58.3921 29.1002C57.4205 28.7795 56.7911 28.8709 55.4065 30.264C54.981 30.6921 54.3501 30.8434 53.7769 30.6541C53.2038 30.465 52.7864 29.9683 52.6993 29.3711C52.4153 27.4269 51.9636 26.9791 50.9924 26.6588C50.7557 26.5807 50.5122 26.542 50.27 26.542C49.9148 26.542 49.5621 26.6252 49.2354 26.7897C48.6858 27.0664 48.2774 27.5402 48.0849 28.1237C47.1764 30.8765 48.9828 34.9364 51.0162 39.0214ZM38.8425 38.2101V53.752C38.8425 54.6322 39.5559 55.3455 40.4361 55.3455C41.3163 55.3455 42.0297 54.6322 42.0297 53.752V38.2101C42.0297 32.6269 41.0086 27.9365 38.995 24.2692C37.1238 20.8611 34.3903 18.4071 31.0863 17.167L20.4535 12.3714C19.8908 12.1177 19.2326 12.2117 18.7636 12.612C18.2945 13.0126 18.0985 13.648 18.2609 14.2431L19.1471 17.4931C13.6714 19.5336 8.61908 23.8603 4.7908 29.8249C4.62595 30.0816 4.53831 30.3805 4.53831 30.6856V40.5459C4.53831 41.4261 5.2517 42.1395 6.13188 42.1395H12.3018C12.3551 42.1395 12.4082 42.1368 12.461 42.1315C14.1486 41.962 16.8948 41.0718 17.2932 37.1312C17.8285 36.9223 18.4017 36.8139 18.9835 36.8139C21.5463 36.8139 23.631 38.8987 23.631 41.4611C23.631 44.4073 21.8199 45.112 18.052 46.3063C13.3573 47.7943 6.92778 49.8323 6.92778 60.4883V63.0246C3.93488 63.0317 1.50203 65.4684 1.50203 68.4633C1.50203 68.9521 1.56825 69.4366 1.69733 69.9037C0.626981 70.9176 4.14607e-08 72.3332 4.14607e-08 73.8467C-0.000177022 75.2951 0.566779 76.6597 1.59676 77.6895C2.6262 78.719 3.99083 79.2861 5.43867 79.2861H25.8188C26.699 79.2861 27.4124 78.5727 27.4124 77.6925C27.4124 76.8123 26.699 76.099 25.8188 76.099H5.43867C4.84197 76.099 4.27785 75.8635 3.85006 75.4358C3.42246 75.0082 3.18696 74.4441 3.18714 73.8471C3.18714 73.3789 3.33339 72.9327 3.59368 72.5616H24.1245C25.0047 72.5616 25.7181 71.8482 25.7181 70.968C25.7181 70.0878 25.0047 69.3744 24.1245 69.3744H4.88482C4.7568 69.0887 4.68934 68.7786 4.68934 68.4638C4.68934 67.2221 5.69931 66.2119 6.94088 66.2119L25.8188 66.2121C26.6988 66.2121 27.4124 65.4985 27.4124 64.6185C27.4124 63.7385 26.699 63.025 25.8188 63.025L10.1151 63.0248V60.4889C10.1151 52.166 14.4383 50.7957 19.0152 49.3449C22.6728 48.1855 26.8184 46.8715 26.8184 41.4615C26.8184 37.1417 23.3036 33.6271 18.9837 33.6271C17.5484 33.6271 16.1437 34.0195 14.9215 34.7619C14.4455 35.0509 14.1551 35.5672 14.1551 36.1239C14.1551 38.2841 13.4458 38.8121 12.2174 38.9525H7.72545V37.0222H8.40537C9.28555 37.0222 9.99894 36.3088 9.99894 35.4286C9.99894 34.5484 9.28555 33.835 8.40537 33.835H7.72545V31.1592C11.4069 25.5899 16.4171 21.5552 21.5289 20.0577C22.3624 19.8136 22.8468 18.947 22.6182 18.1091L22.225 16.6668L29.7038 20.0397C29.765 20.0717 29.8282 20.0999 29.8934 20.1238C35.5809 22.2119 38.8425 28.8041 38.8425 38.2101ZM23.106 25.862C22.2259 25.862 21.5125 26.5754 21.5125 27.4556C21.5125 28.3358 22.2259 29.0492 23.106 29.0492H23.4623C24.3425 29.0492 25.0559 28.3358 25.0559 27.4556C25.0559 26.5754 24.3425 25.862 23.4623 25.862H23.106ZM52.2515 61.2366V75.912C52.2515 77.7724 50.7376 79.2859 48.8769 79.2859H34.2017C32.3411 79.2859 30.8274 77.7724 30.8274 75.912V61.2366C30.8274 59.376 32.3411 57.8623 34.2017 57.8623H48.8769C50.7376 57.8623 52.2515 59.3759 52.2515 61.2366ZM49.0644 61.2366C49.0644 61.1369 48.9768 61.0495 48.8769 61.0495H34.2017C34.102 61.0495 34.0146 61.1369 34.0146 61.2366V75.912C34.0146 76.0115 34.102 76.0988 34.2017 76.0988H48.8769C48.9766 76.0988 49.0644 76.0115 49.0644 75.912V61.2366ZM44.4985 64.1017H44.1477C43.2675 64.1017 42.5541 64.8151 42.5541 65.6952C42.5541 66.5754 43.2675 67.2888 44.1477 67.2888H44.4985C45.3787 67.2888 46.092 66.5754 46.092 65.6952C46.092 64.8151 45.3787 64.1017 44.4985 64.1017ZM44.4983 69.8591H44.1475C43.2674 69.8591 42.554 70.5725 42.554 71.4526C42.554 72.3328 43.2674 73.0462 44.1475 73.0462H44.4983C45.3785 73.0462 46.0919 72.3328 46.0919 71.4526C46.0919 70.5725 45.3783 69.8591 44.4983 69.8591ZM38.9316 64.1017H38.5808C37.7007 64.1017 36.9873 64.8151 36.9873 65.6952C36.9873 66.5754 37.7007 67.2888 38.5808 67.2888H38.9316C39.8118 67.2888 40.5252 66.5754 40.5252 65.6952C40.5252 64.8151 39.8118 64.1017 38.9316 64.1017ZM38.9314 69.8591H38.5807C37.7005 69.8591 36.9871 70.5725 36.9871 71.4526C36.9871 72.3328 37.7005 73.0462 38.5807 73.0462H38.9314C39.8116 73.0462 40.525 72.3328 40.525 71.4526C40.525 70.5725 39.8116 69.8591 38.9314 69.8591Z" fill="#C02717"/>
</g>
<defs>
<clipPath id="clip0_5_35">
<rect width="80" height="80" fill="white"/>
</clipPath>
</defs>
</svg>
