<svg width="80" height="80" viewBox="0 0 80 80" fill="none" xmlns="http://www.w3.org/2000/svg">
<path d="M38.902 67.4689L32.0809 62.708L29.2812 62.3423L33.4205 77.1212C34.0079 79.2184 36.184 80.4395 38.2781 79.8529C40.3737 79.266 41.5969 77.091 41.01 74.9953L38.902 67.4689Z" fill="#8EA604"/>
<path d="M16.2971 22.8424C20.056 22.8424 23.1032 19.7952 23.1032 16.0363C23.1032 12.2773 20.056 9.23015 16.2971 9.23015C12.5382 9.23015 9.49103 12.2773 9.49103 16.0363C9.49103 19.7952 12.5382 22.8424 16.2971 22.8424Z" fill="#8EA604"/>
<path d="M49.1481 61.1645L36.9747 52.6679C36.4559 52.3056 35.8574 52.0739 35.2298 51.9917L19.6599 49.9572C20.3122 51.2881 22.2933 54.4465 19.8511 57.9308L33.2534 59.6818L44.6367 67.6273C46.4253 68.8754 48.8806 68.4322 50.1238 66.6513C51.3696 64.8667 50.9327 62.4103 49.1481 61.1645Z" fill="#8EA604"/>
<path d="M72.9336 0H25.7619C25.4169 0 25.1138 0.227772 25.0176 0.559053C24.9215 0.890334 25.0557 1.245 25.3471 1.42968L27.6022 2.8591L27.346 17.6333L21.2206 24.4223L13.0844 25.2556C10.5584 25.5144 8.72049 27.7719 8.979 30.2979L9.21859 32.6366L12.8834 28.9024L5.8648 40.5542C5.30943 41.5057 5.26871 42.6698 5.75184 43.6555L11.6374 55.6746C12.4465 57.3258 14.4329 57.9618 16.0315 57.1779C17.6677 56.3761 18.33 54.4057 17.5348 52.7837L12.5351 42.5839L18.8331 31.7988L16.0972 41.5567L15.8954 42.2768L19.2658 49.1525L28.3144 48.3602L26.2913 28.6065L33.0509 21.1148C33.5849 20.5226 33.8858 19.7565 33.8965 18.9595L34.0573 7.11006C35.0863 8.06502 35.8532 9.27981 36.268 10.6391L39.0278 19.6817C39.4009 20.9043 40.0616 22.0198 40.9543 22.9346L50.4233 32.6366C51.9806 34.2323 52.8013 36.4054 52.6878 38.6322L51.9328 53.4468C51.8558 54.9577 52.2087 56.4594 52.9506 57.7779L59.5339 69.477C60.3241 70.8812 61.52 72.0143 62.9649 72.7276L72.2029 77.288C72.7144 77.5405 73.32 77.5111 73.8042 77.21C74.2886 76.9089 74.5831 76.379 74.5831 75.8087V1.64984C74.5834 0.738749 73.8446 0 72.9336 0Z" fill="#8EA604"/>
</svg>
