<svg width="80" height="80" viewBox="0 0 80 80" fill="none" xmlns="http://www.w3.org/2000/svg">
<g clip-path="url(#clip0_6_44)">
<path fill-rule="evenodd" clip-rule="evenodd" d="M3.2422 42.4154H19.3359C20.7422 42.4154 21.9466 43.3203 22.3958 44.5833H35.599L35.1042 41.9661C34.9935 41.3802 35.3776 40.8203 35.9636 40.7096C36.0287 40.6966 36.0938 40.6901 36.1589 40.6901H78.9193C79.5117 40.6901 80 41.1719 80 41.7708C80 41.8945 79.9805 42.0117 79.9414 42.1224L78.1901 48.75C77.6888 50.6576 76.8425 52.4544 75.5729 53.7174C74.4271 54.8633 72.9557 55.5794 71.1198 55.5794H43.4505C41.5755 55.5794 40.0261 54.8438 38.8346 53.6523C37.5651 52.3828 36.7253 50.599 36.3672 48.6719L36.0026 46.7448H22.3958C21.9466 48.0013 20.7422 48.9128 19.3359 48.9128H3.2422C1.46486 48.9063 1.14441e-05 47.4479 1.14441e-05 45.6641C1.14441e-05 43.8802 1.45834 42.4154 3.2422 42.4154ZM68.0273 24.7266C68.4505 24.3034 69.1341 24.3034 69.5508 24.7266C69.9675 25.1497 69.974 25.8333 69.5508 26.25C68.5221 27.2786 68.9909 28.1576 69.5378 29.1797C70.4557 30.8984 71.5169 32.8711 69.7201 35.9766C69.4206 36.4909 68.763 36.6667 68.2487 36.3672C67.7344 36.0677 67.5586 35.4102 67.8581 34.8958C69.0495 32.8255 68.3008 31.4193 67.6432 30.1888C66.6927 28.418 65.8724 26.888 68.0273 24.7266ZM60.0065 24.7266C60.4297 24.3034 61.1133 24.3034 61.53 24.7266C61.9466 25.1497 61.9531 25.8333 61.53 26.25C60.5013 27.2786 60.9701 28.1576 61.5169 29.1797C62.4349 30.8984 63.4961 32.8711 61.6992 35.9766C61.3997 36.4909 60.7422 36.6667 60.2279 36.3672C59.7136 36.0677 59.5378 35.4102 59.8372 34.8958C61.0287 32.8255 60.28 31.4193 59.6224 30.1888C58.6719 28.418 57.8516 26.888 60.0065 24.7266ZM51.9922 24.7266C52.4154 24.3034 53.099 24.3034 53.5156 24.7266C53.9388 25.1497 53.9388 25.8333 53.5156 26.25C52.487 27.2786 52.9557 28.1576 53.5026 29.1797C54.4206 30.8984 55.4818 32.8711 53.6849 35.9766C53.3854 36.4909 52.7279 36.6667 52.2135 36.3672C51.6992 36.0677 51.5234 35.4102 51.8229 34.8958C53.0143 32.8255 52.2656 31.4193 51.6081 30.1888C50.651 28.418 49.8307 26.888 51.9922 24.7266ZM43.9714 24.7266C44.3945 24.3034 45.0781 24.3034 45.4948 24.7266C45.918 25.1497 45.918 25.8333 45.4948 26.25C44.4662 27.2786 44.9349 28.1576 45.4818 29.1797C46.3997 30.8984 47.4609 32.8711 45.6641 35.9766C45.3646 36.4909 44.707 36.6667 44.1927 36.3672C43.6784 36.0677 43.5026 35.4102 43.8021 34.8958C44.9935 32.8255 44.2448 31.4193 43.5872 30.1888C42.6367 28.418 41.8164 26.888 43.9714 24.7266ZM76.1133 48.1966L77.526 42.8451H37.4609L38.4831 48.2747C38.7695 49.7852 39.4076 51.1719 40.3646 52.1289C41.1654 52.9297 42.207 53.4245 43.457 53.4245H71.1263C72.3307 53.4245 73.2943 52.9492 74.056 52.194C75.0326 51.2109 75.7031 49.7656 76.1133 48.1966Z" fill="#2E86AB"/>
</g>
<defs>
<clipPath id="clip0_6_44">
<rect width="80" height="80" fill="white"/>
</clipPath>
</defs>
</svg>
