<svg width="80" height="80" viewBox="0 0 80 80" fill="none" xmlns="http://www.w3.org/2000/svg">
<g clip-path="url(#clip0_6_47)">
<path d="M23.0011 47.0794L34.0608 52.7858L37.1066 45.391L33.3872 43.4719L33.6911 42.4613L32.3561 42.2198C29.4488 41.6937 27.6174 39.3064 27.3289 37.693L24.94 24.3302L30.4666 37.1321C30.9075 38.1528 31.8294 38.8854 32.9237 39.0832L45.9766 41.4448C47.7764 41.7707 49.5077 40.577 49.8349 38.7688C50.1613 36.9645 48.9634 35.2372 47.1589 34.9105L35.8577 32.8658L30.853 21.2727L37.5018 29.7919L39.2585 23.9512C40.0461 21.333 38.5619 18.5723 35.9437 17.7847L27.4899 15.2421C26.4745 14.9366 25.4391 14.9764 24.5044 15.288L24.6715 14.8479C25.7809 11.9256 24.3116 8.65704 21.3891 7.54759L19.5954 6.86656L15.5069 18.1909C15.2065 19.0236 14.2853 19.4507 13.455 19.1447L7.57627 16.9704L6.67532 19.3436L5.35895 18.8437C4.65934 18.5781 3.87658 18.9301 3.61097 19.6297L1.92328 24.0755C1.65767 24.7751 2.00961 25.5578 2.70922 25.8234L4.02559 26.3233L3.34483 28.1162C2.23538 31.0384 3.70473 34.307 6.62724 35.4165L10.2815 36.8038C12.3841 37.6022 14.6659 37.0651 16.194 35.6125L14.5124 41.2033C13.9862 42.0799 13.7953 43.1574 14.0651 44.2271L17.7611 58.8901L16.0734 75.5157C15.8354 77.8592 17.6727 79.9025 20.0419 79.9025C22.0613 79.9025 23.7923 78.3726 24.0006 76.3205L25.7589 58.9982C25.8059 58.5374 25.7719 58.0715 25.6585 57.6221L23.0011 47.0794Z" fill="#E59500"/>
<path d="M44.6281 57.817L39.6825 69.8247C40.5569 71.3472 42.3675 72.1589 44.1458 71.6928C46.2744 71.135 47.5477 68.9573 46.9897 66.8286L44.6281 57.817Z" fill="#E59500"/>
<path d="M35.8056 14.6564C39.8529 14.6564 43.1338 11.3754 43.1338 7.32818C43.1338 3.28093 39.8529 -1.52588e-05 35.8056 -1.52588e-05C31.7584 -1.52588e-05 28.4774 3.28093 28.4774 7.32818C28.4774 11.3754 31.7584 14.6564 35.8056 14.6564Z" fill="#E59500"/>
<path d="M51.1664 33.5737L53.7694 27.2543C54.3282 25.8981 53.6815 24.3456 52.325 23.7867C50.9685 23.2279 49.416 23.8749 48.8574 25.2311L46.2707 31.5115L47.7265 31.775C49.0489 32.014 50.237 32.6417 51.1664 33.5737Z" fill="#E59500"/>
<path d="M46.5711 44.686C45.8066 44.686 45.787 44.6499 41.201 43.8201L27.8102 76.3314C27.2514 77.6879 27.8981 79.2401 29.2546 79.7989C30.6111 80.358 32.1636 79.7107 32.7221 78.3545L46.5899 44.6852C46.5833 44.6852 46.5772 44.686 46.5711 44.686Z" fill="#E59500"/>
<path d="M77.5532 46.6194C77.1882 46.5025 76.7898 46.6348 76.5673 46.9466L72.8375 52.1709C71.7905 53.6374 70.5467 54.9527 69.1408 56.0797L62.6421 61.2888C60.9576 62.6392 59.4603 64.2079 58.1899 65.9535L57.4005 67.0385C56.1267 68.7891 54.4748 70.2303 52.5675 71.255L47.8858 73.7709L37.421 78.2401C37.0362 78.4045 36.82 78.817 36.9039 79.2271C36.9878 79.6372 37.3485 79.9315 37.7671 79.9315H72.9603C75.835 79.9315 78.1654 77.601 78.1654 74.7263V47.4587C78.1654 47.0755 77.9179 46.7363 77.5532 46.6194Z" fill="#E59500"/>
<path d="M16.5717 5.85565C13.9916 5.46308 11.3984 6.90428 10.4345 9.44299L8.70804 13.9902L13.0548 15.598L16.5717 5.85565Z" fill="#E59500"/>
</g>
<defs>
<clipPath id="clip0_6_47">
<rect width="80" height="80" fill="white"/>
</clipPath>
</defs>
</svg>
