<svg width="434" height="87" viewBox="0 0 434 87" fill="none" xmlns="http://www.w3.org/2000/svg">
<rect width="434" height="87" fill="#D9D9D9"/>
<path d="M62.9318 38H59.4091C59.2008 36.9867 58.8362 36.0966 58.3153 35.3295C57.804 34.5625 57.179 33.9186 56.4403 33.3977C55.7112 32.8674 54.9015 32.4697 54.0114 32.2045C53.1212 31.9394 52.1932 31.8068 51.2273 31.8068C49.4659 31.8068 47.8703 32.2519 46.4403 33.142C45.0199 34.0322 43.8883 35.3438 43.0455 37.0767C42.2121 38.8097 41.7955 40.9356 41.7955 43.4545C41.7955 45.9735 42.2121 48.0994 43.0455 49.8324C43.8883 51.5653 45.0199 52.8769 46.4403 53.767C47.8703 54.6572 49.4659 55.1023 51.2273 55.1023C52.1932 55.1023 53.1212 54.9697 54.0114 54.7045C54.9015 54.4394 55.7112 54.0464 56.4403 53.5256C57.179 52.9953 57.804 52.3466 58.3153 51.5795C58.8362 50.803 59.2008 49.9129 59.4091 48.9091H62.9318C62.6667 50.3958 62.1837 51.7263 61.483 52.9006C60.7822 54.0748 59.911 55.0739 58.8693 55.8977C57.8277 56.7121 56.6581 57.3324 55.3608 57.7585C54.0729 58.1847 52.6951 58.3977 51.2273 58.3977C48.7462 58.3977 46.5398 57.7917 44.608 56.5795C42.6761 55.3674 41.1563 53.6439 40.0483 51.4091C38.9403 49.1742 38.3864 46.5227 38.3864 43.4545C38.3864 40.3864 38.9403 37.7348 40.0483 35.5C41.1563 33.2652 42.6761 31.5417 44.608 30.3295C46.5398 29.1174 48.7462 28.5114 51.2273 28.5114C52.6951 28.5114 54.0729 28.7244 55.3608 29.1506C56.6581 29.5767 57.8277 30.2017 58.8693 31.0256C59.911 31.84 60.7822 32.8343 61.483 34.0085C62.1837 35.1733 62.6667 36.5038 62.9318 38ZM68.6243 58V28.9091H72.147V41.8636H87.6584V28.9091H91.1811V58H87.6584V44.9886H72.147V58H68.6243ZM99.4268 58H95.7337L106.415 28.9091H110.052L120.734 58H117.04L108.347 33.5114H108.12L99.4268 58ZM100.79 46.6364H115.677V49.7614H100.79V46.6364ZM148.443 43.4545C148.443 46.5227 147.889 49.1742 146.781 51.4091C145.673 53.6439 144.153 55.3674 142.222 56.5795C140.29 57.7917 138.083 58.3977 135.602 58.3977C133.121 58.3977 130.915 57.7917 128.983 56.5795C127.051 55.3674 125.531 53.6439 124.423 51.4091C123.315 49.1742 122.761 46.5227 122.761 43.4545C122.761 40.3864 123.315 37.7348 124.423 35.5C125.531 33.2652 127.051 31.5417 128.983 30.3295C130.915 29.1174 133.121 28.5114 135.602 28.5114C138.083 28.5114 140.29 29.1174 142.222 30.3295C144.153 31.5417 145.673 33.2652 146.781 35.5C147.889 37.7348 148.443 40.3864 148.443 43.4545ZM145.034 43.4545C145.034 40.9356 144.613 38.8097 143.77 37.0767C142.937 35.3438 141.805 34.0322 140.375 33.142C138.955 32.2519 137.364 31.8068 135.602 31.8068C133.841 31.8068 132.245 32.2519 130.815 33.142C129.395 34.0322 128.263 35.3438 127.42 37.0767C126.587 38.8097 126.17 40.9356 126.17 43.4545C126.17 45.9735 126.587 48.0994 127.42 49.8324C128.263 51.5653 129.395 52.8769 130.815 53.767C132.245 54.6572 133.841 55.1023 135.602 55.1023C137.364 55.1023 138.955 54.6572 140.375 53.767C141.805 52.8769 142.937 51.5653 143.77 49.8324C144.613 48.0994 145.034 45.9735 145.034 43.4545ZM151.565 32.0341V28.9091H173.383V32.0341H164.235V58H160.712V32.0341H151.565ZM182.342 28.9091V58H178.82V28.9091H182.342ZM212.815 38H209.292C209.084 36.9867 208.719 36.0966 208.198 35.3295C207.687 34.5625 207.062 33.9186 206.323 33.3977C205.594 32.8674 204.784 32.4697 203.894 32.2045C203.004 31.9394 202.076 31.8068 201.11 31.8068C199.349 31.8068 197.753 32.2519 196.323 33.142C194.903 34.0322 193.771 35.3438 192.928 37.0767C192.095 38.8097 191.678 40.9356 191.678 43.4545C191.678 45.9735 192.095 48.0994 192.928 49.8324C193.771 51.5653 194.903 52.8769 196.323 53.767C197.753 54.6572 199.349 55.1023 201.11 55.1023C202.076 55.1023 203.004 54.9697 203.894 54.7045C204.784 54.4394 205.594 54.0464 206.323 53.5256C207.062 52.9953 207.687 52.3466 208.198 51.5795C208.719 50.803 209.084 49.9129 209.292 48.9091H212.815C212.549 50.3958 212.067 51.7263 211.366 52.9006C210.665 54.0748 209.794 55.0739 208.752 55.8977C207.71 56.7121 206.541 57.3324 205.244 57.7585C203.956 58.1847 202.578 58.3977 201.11 58.3977C198.629 58.3977 196.423 57.7917 194.491 56.5795C192.559 55.3674 191.039 53.6439 189.931 51.4091C188.823 49.1742 188.269 46.5227 188.269 43.4545C188.269 40.3864 188.823 37.7348 189.931 35.5C191.039 33.2652 192.559 31.5417 194.491 30.3295C196.423 29.1174 198.629 28.5114 201.11 28.5114C202.578 28.5114 203.956 28.7244 205.244 29.1506C206.541 29.5767 207.71 30.2017 208.752 31.0256C209.794 31.84 210.665 32.8343 211.366 34.0085C212.067 35.1733 212.549 36.5038 212.815 38ZM229.757 58V28.9091H233.28V41.8636H248.791V28.9091H252.314V58H248.791V44.9886H233.28V58H229.757ZM283.912 43.4545C283.912 46.5227 283.358 49.1742 282.25 51.4091C281.142 53.6439 279.622 55.3674 277.69 56.5795C275.759 57.7917 273.552 58.3977 271.071 58.3977C268.59 58.3977 266.384 57.7917 264.452 56.5795C262.52 55.3674 261 53.6439 259.892 51.4091C258.784 49.1742 258.23 46.5227 258.23 43.4545C258.23 40.3864 258.784 37.7348 259.892 35.5C261 33.2652 262.52 31.5417 264.452 30.3295C266.384 29.1174 268.59 28.5114 271.071 28.5114C273.552 28.5114 275.759 29.1174 277.69 30.3295C279.622 31.5417 281.142 33.2652 282.25 35.5C283.358 37.7348 283.912 40.3864 283.912 43.4545ZM280.503 43.4545C280.503 40.9356 280.081 38.8097 279.239 37.0767C278.405 35.3438 277.274 34.0322 275.844 33.142C274.423 32.2519 272.832 31.8068 271.071 31.8068C269.31 31.8068 267.714 32.2519 266.284 33.142C264.864 34.0322 263.732 35.3438 262.889 37.0767C262.056 38.8097 261.639 40.9356 261.639 43.4545C261.639 45.9735 262.056 48.0994 262.889 49.8324C263.732 51.5653 264.864 52.8769 266.284 53.767C267.714 54.6572 269.31 55.1023 271.071 55.1023C272.832 55.1023 274.423 54.6572 275.844 53.767C277.274 52.8769 278.405 51.5653 279.239 49.8324C280.081 48.0994 280.503 45.9735 280.503 43.4545ZM289.835 58V28.9091H300.006C302.032 28.9091 303.704 29.2595 305.02 29.9602C306.336 30.6515 307.316 31.5843 307.96 32.7585C308.604 33.9233 308.926 35.2159 308.926 36.6364C308.926 37.8864 308.704 38.9186 308.259 39.733C307.823 40.5473 307.245 41.1913 306.526 41.6648C305.815 42.1383 305.044 42.4886 304.21 42.7159V43C305.1 43.0568 305.995 43.3693 306.895 43.9375C307.795 44.5057 308.547 45.3201 309.153 46.3807C309.759 47.4413 310.062 48.7386 310.062 50.2727C310.062 51.7311 309.731 53.0426 309.068 54.2074C308.405 55.3722 307.359 56.2955 305.929 56.9773C304.499 57.6591 302.638 58 300.347 58H289.835ZM293.358 54.875H300.347C302.648 54.875 304.281 54.4299 305.247 53.5398C306.223 52.6402 306.71 51.5511 306.71 50.2727C306.71 49.2879 306.459 48.3788 305.957 47.5455C305.455 46.7027 304.741 46.0303 303.812 45.5284C302.884 45.017 301.786 44.7614 300.517 44.7614H293.358V54.875ZM293.358 41.6932H299.892C300.953 41.6932 301.909 41.4848 302.761 41.0682C303.623 40.6515 304.305 40.0644 304.807 39.3068C305.318 38.5492 305.574 37.6591 305.574 36.6364C305.574 35.358 305.129 34.2737 304.239 33.3835C303.348 32.4839 301.938 32.0341 300.006 32.0341H293.358V41.6932ZM315.851 58V28.9091H326.021C328.048 28.9091 329.719 29.2595 331.036 29.9602C332.352 30.6515 333.332 31.5843 333.976 32.7585C334.62 33.9233 334.942 35.2159 334.942 36.6364C334.942 37.8864 334.719 38.9186 334.274 39.733C333.839 40.5473 333.261 41.1913 332.541 41.6648C331.831 42.1383 331.059 42.4886 330.226 42.7159V43C331.116 43.0568 332.011 43.3693 332.911 43.9375C333.81 44.5057 334.563 45.3201 335.169 46.3807C335.775 47.4413 336.078 48.7386 336.078 50.2727C336.078 51.7311 335.747 53.0426 335.084 54.2074C334.421 55.3722 333.375 56.2955 331.945 56.9773C330.515 57.6591 328.654 58 326.362 58H315.851ZM319.374 54.875H326.362C328.663 54.875 330.297 54.4299 331.263 53.5398C332.238 52.6402 332.726 51.5511 332.726 50.2727C332.726 49.2879 332.475 48.3788 331.973 47.5455C331.471 46.7027 330.756 46.0303 329.828 45.5284C328.9 45.017 327.802 44.7614 326.533 44.7614H319.374V54.875ZM319.374 41.6932H325.908C326.968 41.6932 327.925 41.4848 328.777 41.0682C329.639 40.6515 330.321 40.0644 330.822 39.3068C331.334 38.5492 331.589 37.6591 331.589 36.6364C331.589 35.358 331.144 34.2737 330.254 33.3835C329.364 32.4839 327.953 32.0341 326.021 32.0341H319.374V41.6932ZM345.389 28.9091V58H341.866V28.9091H345.389ZM352.452 58V28.9091H370.009V32.0341H355.975V41.8636H369.1V44.9886H355.975V54.875H370.237V58H352.452ZM392.268 36.1818C392.097 34.7424 391.406 33.625 390.194 32.8295C388.982 32.0341 387.495 31.6364 385.734 31.6364C384.446 31.6364 383.319 31.8447 382.353 32.2614C381.397 32.678 380.648 33.2509 380.109 33.9801C379.578 34.7093 379.313 35.5379 379.313 36.4659C379.313 37.2424 379.498 37.91 379.867 38.4688C380.246 39.018 380.729 39.4773 381.316 39.8466C381.903 40.2064 382.519 40.5047 383.163 40.7415C383.807 40.9687 384.398 41.1534 384.938 41.2955L387.893 42.0909C388.65 42.2898 389.493 42.5644 390.421 42.9148C391.359 43.2652 392.254 43.7434 393.106 44.3494C393.968 44.946 394.678 45.7131 395.237 46.6506C395.795 47.5881 396.075 48.7386 396.075 50.1023C396.075 51.6742 395.663 53.0947 394.839 54.3636C394.024 55.6326 392.831 56.6411 391.259 57.3892C389.697 58.1373 387.798 58.5114 385.563 58.5114C383.48 58.5114 381.676 58.1752 380.151 57.5028C378.636 56.8305 377.443 55.893 376.572 54.6903C375.71 53.4877 375.222 52.0909 375.109 50.5H378.745C378.84 51.5985 379.209 52.5076 379.853 53.2273C380.506 53.9375 381.33 54.4678 382.325 54.8182C383.328 55.1591 384.408 55.3295 385.563 55.3295C386.908 55.3295 388.115 55.1117 389.185 54.6761C390.255 54.2311 391.103 53.6155 391.728 52.8295C392.353 52.0341 392.665 51.1061 392.665 50.0455C392.665 49.0795 392.396 48.2936 391.856 47.6875C391.316 47.0814 390.606 46.589 389.725 46.2102C388.844 45.8314 387.893 45.5 386.87 45.2159L383.29 44.1932C381.018 43.5398 379.219 42.607 377.893 41.3949C376.567 40.1828 375.904 38.5966 375.904 36.6364C375.904 35.0076 376.344 33.5871 377.225 32.375C378.115 31.1534 379.308 30.2064 380.805 29.5341C382.31 28.8523 383.991 28.5114 385.847 28.5114C387.722 28.5114 389.389 28.8475 390.847 29.5199C392.306 30.1828 393.461 31.0919 394.313 32.2472C395.175 33.4025 395.629 34.714 395.677 36.1818H392.268Z" fill="black"/>
</svg>
