<svg width="434" height="87" viewBox="0 0 434 87" fill="none" xmlns="http://www.w3.org/2000/svg">
<rect width="434" height="87" fill="#D9D9D9"/>
<path d="M57.9318 38H54.4091C54.2008 36.9867 53.8362 36.0966 53.3153 35.3295C52.804 34.5625 52.179 33.9186 51.4403 33.3977C50.7112 32.8674 49.9015 32.4697 49.0114 32.2045C48.1212 31.9394 47.1932 31.8068 46.2273 31.8068C44.4659 31.8068 42.8703 32.2519 41.4403 33.142C40.0199 34.0322 38.8883 35.3438 38.0455 37.0767C37.2121 38.8097 36.7955 40.9356 36.7955 43.4545C36.7955 45.9735 37.2121 48.0994 38.0455 49.8324C38.8883 51.5653 40.0199 52.8769 41.4403 53.767C42.8703 54.6572 44.4659 55.1023 46.2273 55.1023C47.1932 55.1023 48.1212 54.9697 49.0114 54.7045C49.9015 54.4394 50.7112 54.0464 51.4403 53.5256C52.179 52.9953 52.804 52.3466 53.3153 51.5795C53.8362 50.803 54.2008 49.9129 54.4091 48.9091H57.9318C57.6667 50.3958 57.1837 51.7263 56.483 52.9006C55.7822 54.0748 54.911 55.0739 53.8693 55.8977C52.8277 56.7121 51.6581 57.3324 50.3608 57.7585C49.0729 58.1847 47.6951 58.3977 46.2273 58.3977C43.7462 58.3977 41.5398 57.7917 39.608 56.5795C37.6761 55.3674 36.1563 53.6439 35.0483 51.4091C33.9403 49.1742 33.3864 46.5227 33.3864 43.4545C33.3864 40.3864 33.9403 37.7348 35.0483 35.5C36.1563 33.2652 37.6761 31.5417 39.608 30.3295C41.5398 29.1174 43.7462 28.5114 46.2273 28.5114C47.6951 28.5114 49.0729 28.7244 50.3608 29.1506C51.6581 29.5767 52.8277 30.2017 53.8693 31.0256C54.911 31.84 55.7822 32.8343 56.483 34.0085C57.1837 35.1733 57.6667 36.5038 57.9318 38ZM63.6243 58V28.9091H67.147V41.8636H82.6584V28.9091H86.1811V58H82.6584V44.9886H67.147V58H63.6243ZM94.4268 58H90.7337L101.415 28.9091H105.052L115.734 58H112.04L103.347 33.5114H103.12L94.4268 58ZM95.7905 46.6364H110.677V49.7614H95.7905V46.6364ZM143.443 43.4545C143.443 46.5227 142.889 49.1742 141.781 51.4091C140.673 53.6439 139.153 55.3674 137.222 56.5795C135.29 57.7917 133.083 58.3977 130.602 58.3977C128.121 58.3977 125.915 57.7917 123.983 56.5795C122.051 55.3674 120.531 53.6439 119.423 51.4091C118.315 49.1742 117.761 46.5227 117.761 43.4545C117.761 40.3864 118.315 37.7348 119.423 35.5C120.531 33.2652 122.051 31.5417 123.983 30.3295C125.915 29.1174 128.121 28.5114 130.602 28.5114C133.083 28.5114 135.29 29.1174 137.222 30.3295C139.153 31.5417 140.673 33.2652 141.781 35.5C142.889 37.7348 143.443 40.3864 143.443 43.4545ZM140.034 43.4545C140.034 40.9356 139.613 38.8097 138.77 37.0767C137.937 35.3438 136.805 34.0322 135.375 33.142C133.955 32.2519 132.364 31.8068 130.602 31.8068C128.841 31.8068 127.245 32.2519 125.815 33.142C124.395 34.0322 123.263 35.3438 122.42 37.0767C121.587 38.8097 121.17 40.9356 121.17 43.4545C121.17 45.9735 121.587 48.0994 122.42 49.8324C123.263 51.5653 124.395 52.8769 125.815 53.767C127.245 54.6572 128.841 55.1023 130.602 55.1023C132.364 55.1023 133.955 54.6572 135.375 53.767C136.805 52.8769 137.937 51.5653 138.77 49.8324C139.613 48.0994 140.034 45.9735 140.034 43.4545ZM146.565 32.0341V28.9091H168.383V32.0341H159.235V58H155.712V32.0341H146.565ZM177.342 28.9091V58H173.82V28.9091H177.342ZM207.815 38H204.292C204.084 36.9867 203.719 36.0966 203.198 35.3295C202.687 34.5625 202.062 33.9186 201.323 33.3977C200.594 32.8674 199.784 32.4697 198.894 32.2045C198.004 31.9394 197.076 31.8068 196.11 31.8068C194.349 31.8068 192.753 32.2519 191.323 33.142C189.903 34.0322 188.771 35.3438 187.928 37.0767C187.095 38.8097 186.678 40.9356 186.678 43.4545C186.678 45.9735 187.095 48.0994 187.928 49.8324C188.771 51.5653 189.903 52.8769 191.323 53.767C192.753 54.6572 194.349 55.1023 196.11 55.1023C197.076 55.1023 198.004 54.9697 198.894 54.7045C199.784 54.4394 200.594 54.0464 201.323 53.5256C202.062 52.9953 202.687 52.3466 203.198 51.5795C203.719 50.803 204.084 49.9129 204.292 48.9091H207.815C207.549 50.3958 207.067 51.7263 206.366 52.9006C205.665 54.0748 204.794 55.0739 203.752 55.8977C202.71 56.7121 201.541 57.3324 200.244 57.7585C198.956 58.1847 197.578 58.3977 196.11 58.3977C193.629 58.3977 191.423 57.7917 189.491 56.5795C187.559 55.3674 186.039 53.6439 184.931 51.4091C183.823 49.1742 183.269 46.5227 183.269 43.4545C183.269 40.3864 183.823 37.7348 184.931 35.5C186.039 33.2652 187.559 31.5417 189.491 30.3295C191.423 29.1174 193.629 28.5114 196.11 28.5114C197.578 28.5114 198.956 28.7244 200.244 29.1506C201.541 29.5767 202.71 30.2017 203.752 31.0256C204.794 31.84 205.665 32.8343 206.366 34.0085C207.067 35.1733 207.549 36.5038 207.815 38ZM224.757 58V28.9091H228.28V41.8636H243.791V28.9091H247.314V58H243.791V44.9886H228.28V58H224.757ZM278.912 43.4545C278.912 46.5227 278.358 49.1742 277.25 51.4091C276.142 53.6439 274.622 55.3674 272.69 56.5795C270.759 57.7917 268.552 58.3977 266.071 58.3977C263.59 58.3977 261.384 57.7917 259.452 56.5795C257.52 55.3674 256 53.6439 254.892 51.4091C253.784 49.1742 253.23 46.5227 253.23 43.4545C253.23 40.3864 253.784 37.7348 254.892 35.5C256 33.2652 257.52 31.5417 259.452 30.3295C261.384 29.1174 263.59 28.5114 266.071 28.5114C268.552 28.5114 270.759 29.1174 272.69 30.3295C274.622 31.5417 276.142 33.2652 277.25 35.5C278.358 37.7348 278.912 40.3864 278.912 43.4545ZM275.503 43.4545C275.503 40.9356 275.081 38.8097 274.239 37.0767C273.405 35.3438 272.274 34.0322 270.844 33.142C269.423 32.2519 267.832 31.8068 266.071 31.8068C264.31 31.8068 262.714 32.2519 261.284 33.142C259.864 34.0322 258.732 35.3438 257.889 37.0767C257.056 38.8097 256.639 40.9356 256.639 43.4545C256.639 45.9735 257.056 48.0994 257.889 49.8324C258.732 51.5653 259.864 52.8769 261.284 53.767C262.714 54.6572 264.31 55.1023 266.071 55.1023C267.832 55.1023 269.423 54.6572 270.844 53.767C272.274 52.8769 273.405 51.5653 274.239 49.8324C275.081 48.0994 275.503 45.9735 275.503 43.4545ZM284.835 58V28.9091H295.006C297.032 28.9091 298.704 29.2595 300.02 29.9602C301.336 30.6515 302.316 31.5843 302.96 32.7585C303.604 33.9233 303.926 35.2159 303.926 36.6364C303.926 37.8864 303.704 38.9186 303.259 39.733C302.823 40.5473 302.245 41.1913 301.526 41.6648C300.815 42.1383 300.044 42.4886 299.21 42.7159V43C300.1 43.0568 300.995 43.3693 301.895 43.9375C302.795 44.5057 303.547 45.3201 304.153 46.3807C304.759 47.4413 305.062 48.7386 305.062 50.2727C305.062 51.7311 304.731 53.0426 304.068 54.2074C303.405 55.3722 302.359 56.2955 300.929 56.9773C299.499 57.6591 297.638 58 295.347 58H284.835ZM288.358 54.875H295.347C297.648 54.875 299.281 54.4299 300.247 53.5398C301.223 52.6402 301.71 51.5511 301.71 50.2727C301.71 49.2879 301.459 48.3788 300.957 47.5455C300.455 46.7027 299.741 46.0303 298.812 45.5284C297.884 45.017 296.786 44.7614 295.517 44.7614H288.358V54.875ZM288.358 41.6932H294.892C295.953 41.6932 296.909 41.4848 297.761 41.0682C298.623 40.6515 299.305 40.0644 299.807 39.3068C300.318 38.5492 300.574 37.6591 300.574 36.6364C300.574 35.358 300.129 34.2737 299.239 33.3835C298.348 32.4839 296.938 32.0341 295.006 32.0341H288.358V41.6932ZM310.851 58V28.9091H321.021C323.048 28.9091 324.719 29.2595 326.036 29.9602C327.352 30.6515 328.332 31.5843 328.976 32.7585C329.62 33.9233 329.942 35.2159 329.942 36.6364C329.942 37.8864 329.719 38.9186 329.274 39.733C328.839 40.5473 328.261 41.1913 327.541 41.6648C326.831 42.1383 326.059 42.4886 325.226 42.7159V43C326.116 43.0568 327.011 43.3693 327.911 43.9375C328.81 44.5057 329.563 45.3201 330.169 46.3807C330.775 47.4413 331.078 48.7386 331.078 50.2727C331.078 51.7311 330.747 53.0426 330.084 54.2074C329.421 55.3722 328.375 56.2955 326.945 56.9773C325.515 57.6591 323.654 58 321.362 58H310.851ZM314.374 54.875H321.362C323.663 54.875 325.297 54.4299 326.263 53.5398C327.238 52.6402 327.726 51.5511 327.726 50.2727C327.726 49.2879 327.475 48.3788 326.973 47.5455C326.471 46.7027 325.756 46.0303 324.828 45.5284C323.9 45.017 322.802 44.7614 321.533 44.7614H314.374V54.875ZM314.374 41.6932H320.908C321.968 41.6932 322.925 41.4848 323.777 41.0682C324.639 40.6515 325.321 40.0644 325.822 39.3068C326.334 38.5492 326.589 37.6591 326.589 36.6364C326.589 35.358 326.144 34.2737 325.254 33.3835C324.364 32.4839 322.953 32.0341 321.021 32.0341H314.374V41.6932ZM340.389 28.9091V58H336.866V28.9091H340.389ZM347.452 58V28.9091H365.009V32.0341H350.975V41.8636H364.1V44.9886H350.975V54.875H365.237V58H347.452ZM387.268 36.1818C387.097 34.7424 386.406 33.625 385.194 32.8295C383.982 32.0341 382.495 31.6364 380.734 31.6364C379.446 31.6364 378.319 31.8447 377.353 32.2614C376.397 32.678 375.648 33.2509 375.109 33.9801C374.578 34.7093 374.313 35.5379 374.313 36.4659C374.313 37.2424 374.498 37.91 374.867 38.4688C375.246 39.018 375.729 39.4773 376.316 39.8466C376.903 40.2064 377.519 40.5047 378.163 40.7415C378.807 40.9687 379.398 41.1534 379.938 41.2955L382.893 42.0909C383.65 42.2898 384.493 42.5644 385.421 42.9148C386.359 43.2652 387.254 43.7434 388.106 44.3494C388.968 44.946 389.678 45.7131 390.237 46.6506C390.795 47.5881 391.075 48.7386 391.075 50.1023C391.075 51.6742 390.663 53.0947 389.839 54.3636C389.024 55.6326 387.831 56.6411 386.259 57.3892C384.697 58.1373 382.798 58.5114 380.563 58.5114C378.48 58.5114 376.676 58.1752 375.151 57.5028C373.636 56.8305 372.443 55.893 371.572 54.6903C370.71 53.4877 370.222 52.0909 370.109 50.5H373.745C373.84 51.5985 374.209 52.5076 374.853 53.2273C375.506 53.9375 376.33 54.4678 377.325 54.8182C378.328 55.1591 379.408 55.3295 380.563 55.3295C381.908 55.3295 383.115 55.1117 384.185 54.6761C385.255 54.2311 386.103 53.6155 386.728 52.8295C387.353 52.0341 387.665 51.1061 387.665 50.0455C387.665 49.0795 387.396 48.2936 386.856 47.6875C386.316 47.0814 385.606 46.589 384.725 46.2102C383.844 45.8314 382.893 45.5 381.87 45.2159L378.29 44.1932C376.018 43.5398 374.219 42.607 372.893 41.3949C371.567 40.1828 370.904 38.5966 370.904 36.6364C370.904 35.0076 371.344 33.5871 372.225 32.375C373.115 31.1534 374.308 30.2064 375.805 29.5341C377.31 28.8523 378.991 28.5114 380.847 28.5114C382.722 28.5114 384.389 28.8475 385.847 29.5199C387.306 30.1828 388.461 31.0919 389.313 32.2472C390.175 33.4025 390.629 34.714 390.677 36.1818H387.268Z" fill="black"/>
</svg>
