<?xml version="1.0" encoding="UTF-8" standalone="no"?>
<!-- Created with Inkscape (http://www.inkscape.org/) -->

<svg
   width="92.871941mm"
   height="93.640312mm"
   viewBox="0 0 92.871941 93.640312"
   version="1.1"
   id="svg1"
   xml:space="preserve"
   inkscape:version="1.4 (e7c3feb1, 2024-10-09)"
   sodipodi:docname="cycling.svg"
   xmlns:inkscape="http://www.inkscape.org/namespaces/inkscape"
   xmlns:sodipodi="http://sodipodi.sourceforge.net/DTD/sodipodi-0.dtd"
   xmlns="http://www.w3.org/2000/svg"
   xmlns:svg="http://www.w3.org/2000/svg"><sodipodi:namedview
     id="namedview1"
     pagecolor="#ffffff"
     bordercolor="#000000"
     borderopacity="0.25"
     inkscape:showpageshadow="2"
     inkscape:pageopacity="0.0"
     inkscape:pagecheckerboard="0"
     inkscape:deskcolor="#d1d1d1"
     inkscape:document-units="mm"
     inkscape:zoom="0.57635906"
     inkscape:cx="251.57928"
     inkscape:cy="156.15266"
     inkscape:window-width="1104"
     inkscape:window-height="891"
     inkscape:window-x="53"
     inkscape:window-y="37"
     inkscape:window-maximized="0"
     inkscape:current-layer="g11" /><defs
     id="defs1"><inkscape:path-effect
       effect="fillet_chamfer"
       id="path-effect11"
       is_visible="true"
       lpeversion="1"
       nodesatellites_param="F,0,0,1,0,9.9383351,0,1 @ F,0,0,1,0,6.6674649,0,1 @ F,0,0,1,0,4.6619976,0,1"
       radius="0"
       unit="px"
       method="auto"
       mode="F"
       chamfer_steps="1"
       flexible="false"
       use_knot_distance="true"
       apply_no_radius="true"
       apply_with_radius="true"
       only_selected="false"
       hide_knots="false" /><inkscape:perspective
       sodipodi:type="inkscape:persp3d"
       inkscape:vp_x="0 : -54.859692 : 1"
       inkscape:vp_y="0 : 999.99998 : 0"
       inkscape:vp_z="210.00001 : -54.859692 : 1"
       inkscape:persp3d-origin="105 : -104.35969 : 1"
       id="perspective3" /></defs><g
     inkscape:label="Layer 1"
     inkscape:groupmode="layer"
     id="layer1"
     transform="translate(-47.869711,-76.628638)"><g
       id="g11"><path
         style="fill:#ff80b2;fill-opacity:1;stroke-width:0.525996"
         d="m 61.485051,170.26895 h 72.589139 a 6.6674649,6.6674649 135 0 0 6.66746,-6.66746 v -36.13533 a 2.8001296,2.8001296 30.990236 0 0 -4.11555,-2.47192 l -76.305946,40.60595 a 2.4797043,2.4797043 75.990236 0 0 1.164897,4.66876 z"
         id="path10"
         sodipodi:nodetypes="cccc"
         inkscape:path-effect="#path-effect11"
         inkscape:original-d="M 51.546716,170.26895 H 140.74165 V 122.80416 Z"
         transform="matrix(0.96875317,0,0,0.96606058,4.5911982,5.77883)" /><path
         style="fill:#ff80b2;fill-opacity:1"
         d="m 68.878386,160.4419 c -7.752795,1.8318 -15.319221,-1.58588 -19.067911,-8.61277 -6.012943,-11.27122 2.728462,-25.22847 15.475696,-24.70978 1.228178,0.05 1.228178,0.05 1.99264,-3.46937 0.764466,-3.51935 0.764466,-3.51935 -0.662835,-2.76091 -2.322107,1.23392 -4.05015,0.64824 -4.244047,-1.43842 -0.188474,-2.02834 1.887617,-3.31563 3.193456,-1.9801 1.021962,1.0452 2.288425,1.82522 4.227855,2.60395 1.9362,0.77744 1.877538,0.54299 1.068551,4.27071 -0.822845,3.79157 -0.995734,3.27554 1.571897,4.69167 2.23765,1.23412 3.955621,2.61942 5.428723,4.37749 0.911972,1.08839 0.911972,1.08839 2.031965,0.49325 0.615997,-0.32733 1.176706,-0.48841 1.246028,-0.35796 0.2203,0.41459 0.05177,3.55837 -0.21927,4.09016 -0.143671,0.28189 -0.0699,1.28185 0.164488,2.22961 2.240803,9.06088 -3.347816,18.47921 -12.207236,20.57247 z m 5.136142,-6.51001 c 3.006273,-2.93924 4.6206,-7.32739 4.144309,-11.26523 -0.414572,-3.42757 0.29493,-3.4586 -6.979988,0.30533 -9.001079,4.65701 -8.976352,4.6771 -6.852565,-5.55947 1.602445,-7.72362 1.70951,-7.15731 -1.300116,-6.87678 -5.826162,0.54306 -11.216108,6.19462 -11.788028,12.3602 -1.131026,12.19302 14.063029,19.55506 22.776388,11.03595 z m 1.010722,-18.7103 c -1.047381,-1.4193 -5.525335,-4.46271 -5.601966,-3.80734 -0.0081,0.069 -0.279742,1.27746 -0.603728,2.68556 -1.642674,7.13919 -1.918103,6.71198 2.733663,4.24013 4.147035,-2.20365 4.147035,-2.20365 3.472031,-3.11835 z m 46.56862,-2.51922 c -14.6243,4.8922 -27.803385,-11.72766 -19.69665,-24.83901 1.40654,-2.27484 1.40369,-2.16208 0.0872,-3.44989 -1.23907,-1.21211 -0.92578,-2.13312 -4.759962,13.99331 -2.997975,12.60938 -3.151365,12.9971 -4.905482,12.39986 -1.727491,-0.58819 -1.745089,-0.45946 2.547612,-18.63738 1.658599,-7.02352 1.658599,-7.02352 -0.08876,-6.24482 -2.525438,1.12545 -2.625771,1.08286 -7.516983,-3.19049 -1.580982,-1.38126 -3.005395,-2.55145 -3.16536,-2.6004 -0.24508,-0.075 -1.793574,2.80293 -5.927156,11.01582 -0.809673,1.60871 -1.463942,1.36108 5.558277,2.10374 8.098664,0.85652 7.648477,-0.14146 5.901768,13.08306 -1.333156,10.09345 -1.978178,11.39392 -5.167234,10.41804 -2.100885,-0.6429 -2.14671,-0.96559 -1.315521,-9.26419 0.672736,-6.71663 0.685998,-7.3355 0.159755,-7.45229 -0.315649,-0.0701 -2.245606,-0.22855 -4.288797,-0.35221 -13.570766,-0.82133 -15.683729,-3.72554 -10.556418,-14.50951 9.001722,-18.932772 9.822014,-19.244239 22.070351,-8.380127 3.485488,3.091579 3.485488,3.091579 7.462071,1.128325 3.823789,-1.887839 4.004989,-1.951181 4.715699,-1.648685 1.46595,0.62396 2.07887,3.131694 0.91639,3.749417 -0.43759,0.23252 -0.41235,0.2755 1.00596,1.71259 1.16387,1.17926 1.16387,1.17926 4.03163,-0.15814 6.00599,-2.800918 12.37466,-2.332438 17.39086,1.27926 11.23842,8.09176 8.64312,25.46065 -4.45932,29.84374 z m 3.92169,-6.11781 c 9.26022,-8.51058 2.82767,-23.8082 -9.86124,-23.45154 -2.59715,0.073 -7.43937,1.86525 -7.04493,2.60754 0.0785,0.1477 2.12904,2.35738 4.5568,4.91039 4.85732,5.10795 5.17435,5.54079 4.84547,6.61552 -0.69825,2.28179 -2.12576,1.49504 -7.64244,-4.21197 -5.39379,-5.57991 -4.69457,-5.25843 -6.00812,-2.7623 -6.989912,13.28277 10.10424,26.44805 21.15446,16.29236 z M 87.610297,88.944094 c -4.315105,0.575105 -7.715421,-2.44045 -7.443348,-6.601096 0.471805,-7.215171 10.787739,-7.773776 12.357613,-0.669165 0.674472,3.05241 -1.905496,6.869254 -4.914265,7.270261 z"
         id="path11"
         sodipodi:nodetypes="ssssssssssssssssssssssssscsscsssssssssssssscssssssssccsssssscsssss" /></g></g></svg>
